<?xml version="1.0" encoding="UTF-8"?>
<svg id="Layer_2" data-name="Layer 2" xmlns="http://www.w3.org/2000/svg" viewBox="0 0 343.65 266.54">
  <g id="OBJECTS">
    <g>
      <polygon points="214.55 204.91 214.55 206.26 203.13 206.26 203.13 204.91 214.55 204.91 214.55 204.91" style="fill: #b2b2b2; fill-rule: evenodd; stroke-width: 0px;"/>
      <path d="M65.44,205h36.84l.26,1.35h-7.34l-8.77-.61-.65.61h-20.63c-14.02,0-13.06-1.35.28-1.35h0ZM67.41,201.24h34.14l.26,1.35h-33.5c-11.5,0-14.32-1.35-.9-1.35h0ZM15.59,265.19h320.21c9.17,0,11.36,1.35.79,1.35H15.42c-20.89,0-20.29-1.35.17-1.35h0ZM17.06,261.43h315.93c8.75,0,10.72,1.35.73,1.35H17.11c-18.13,0-18.33-1.35-.06-1.35h0ZM18.01,257.66h311.94c10.01,0,9.32,1.35-.23,1.35H17.51c-15.16,0-13.44-1.35.51-1.35h0ZM20.43,253.9h307.77c6.54,0,8.4,1.35.9,1.35H20.32c-13.63,0-13.22-1.35.11-1.35h0ZM23.08,250.14h302.82c6.18,0,6.58,1.35.17,1.35H22.57c-12.7,0-11.1-1.35.51-1.35h0ZM25.44,246.38h242.04c.54.5.88.8.88.8l22.96-.8h35.86v1.35H24.88c-11.24,0-9.57-1.35.56-1.35h0ZM25.39,242.62h238.53c.38.47.77.92,1.16,1.35H25.89c-6.5,0-7.55-1.35-.51-1.35h0ZM32.2,238.86h110.07c10.37.48,20.53,1,29.62,1.41H32.09c-10.99,0-10.6-1.41.11-1.41h0ZM229.93,238.86h31.77c.13.43.32.89.57,1.35h-41.94c3.13-.41,6.47-.87,9.59-1.35h0ZM34.11,235.1h33.97c5.42.36,13.94.83,24.18,1.35h-58.09c-8.83,0-8.96-1.35-.06-1.35h0ZM243.34,235.1h19.22c-.26.47-.48.92-.66,1.35h-20.31c.72-.26,1.19-.51,1.34-.75.14-.21.27-.41.41-.6h0ZM36.59,231.33h22.7c-.27.39-.43.87-.36,1.35h-22.28c-7.54,0-7.87-1.35-.06-1.35h0ZM246.43,231.33h18.63c-.33.43-.66.89-.98,1.35h-18.56c.37-.42.69-.85.91-1.35h0ZM34.63,227.57h28.58l-1.44,1.35h-27.15v-1.35h0ZM266.97,228.92h-18.13c5.34-1.26,19.08-1.11,19.08-1.11,0,0-.38.42-.95,1.11h0ZM38.08,223.81h29.14l-1.44,1.35h-27.7v-1.35h0ZM46.7,220.05h24.52l-1.44,1.35h-23.08v-1.35h0ZM51.93,216.34h23.29l-1.49,1.29h-21.41c-9.59,0-10.68-1.29-.39-1.29h0ZM57.61,212.53h21.61l-1.44,1.41h-20.28c-12.73,0-12.32-1.41.11-1.41h0ZM62.29,208.76h20.94l-1.44,1.35h-19.67c-14.36,0-13.75-1.35.17-1.35h0Z" style="fill: #b2b2b2; fill-rule: evenodd; stroke-width: 0px;"/>
      <path d="M312.89,162.22l-13.29,31.19.96-.03c2.49.74,4.88,1.45,7.09,2.17,4.43,1.44,8.2,2.78,11.02,3.78,2.65-5.62,4.14-11.9,4.14-18.53,0-9.03-2.75-17.41-7.47-24.36-.8,1.88-1.62,3.81-2.45,5.77h0ZM100.95,201.3l-4.26-22.75c-2.1.12-4.92.15-7.21.16-2.96.02-5.64,0-5.64,0-.38,0-.68-.31-.68-.68,0,0,0-11.29.04-19.48,0-1.19.01-2.32.03-3.34l.17-5.07c-8.9-3.66-15.15-11.38-15.07-20.56.08-9.27,5.69-16.6,14.58-20.33l-.1-3.15v-5.5c.05-4.83.09-10.63.16-14.97l.21-5.94c-.39-.03-.78-.08-1.16-.13,0,.06,0,.11,0,.17-20.33,15.42-33.46,39.83-33.46,67.31,0,20.66,7.42,39.59,19.74,54.27h32.65ZM177.93,74.49c-.01,1.8-.03,3.5-.05,5.02.44-.5,1-.86,1.6-1,1.92-.44,1.69-2.28-.53-3.32-.41-.19-.75-.43-1.01-.7h0ZM82.33,26.12c2.74,0,4.95-2.22,4.95-4.95s-2.22-4.95-4.95-4.95-4.95,2.22-4.95,4.95,2.22,4.95,4.95,4.95h0ZM90.88,27.02c0,2.24,1.81,4.05,4.05,4.05s4.05-1.81,4.05-4.05-1.81-4.05-4.05-4.05-4.05,1.81-4.05,4.05h0ZM81.43,46.83c4.48,0,8.11-3.63,8.11-8.11s-3.63-8.11-8.11-8.11-8.11,3.63-8.11,8.11,3.63,8.11,8.11,8.11h0ZM119.21,53.23c24.46-.07,58.13-.1,58.13-.1.36,0,.65.29.65.65,0,0,.01,8.4-.03,16.6.83-.71,1.99-.73,3.12-.16,1.79.91,3.64-.03,1.53-1.78-1.81-1.51-1.46-3.79.19-5.13,1.68-1.36,3.96-1.12,4.86,1.32.5,1.35,1.26,2.03,2.01,1.92.75-.12,1.28-1,1.37-2.43.18-2.98,1.79-4,3.28-3.93,1.73.08,3.5,1.75,3.25,4.03-.12,1.12.94,1.82,1.75,1.51.91-.36.9-1.83.7-2.89-.52-2.8.46-4.33,1.63-4.89,1.66-.79,3.97.26,4.25,2.78.08.75.25,1.32.49,1.74.79,1.37,2.05.38,2.71-.66,1.16-1.82,4.04-1.66,5.07.26.58,1.08.6,2.8-.96,5.05-1.14,1.63.25,2.64,1.58,1.59,1.21-.96,2.35-1.22,3.25-1.06,2.54.45,3.29,4.01.4,6.64-.86.78-.45,2.2.38,2.67l.71-1.68c.04-.11.12-.19.22-.23.11-.31.33-.61.72-.84.82-.5,2.66-.78,5.75-.51,3.69.32,6.93.82,9.89,1.49,3.43.78,6.32,1.78,9.5,3.13l.02-.04c1.78.65,4.14,1.7,4.85,3.04.32.61.23,1.24-.24,1.69-.02,4.08-.49,10.32-.88,15.1,1.13.49,3.5,1.52,4.68,2.27l.47-1.11.02.02c.08-.38.45-.49.71-.45l.76.31c.93.39,2.87,1.2,5.51,2.3,3.98,1.65,9.54,3.94,15.62,6.45-1.83-4.19-4.11-8.14-6.78-11.78,5.33-3.98,8.78-10.34,8.78-17.5,0-12.06-9.78-21.84-21.84-21.84-3.73,0-7.25.94-10.32,2.59C236.27,24.96,204.2,0,166.31,0c-34.85,0-64.77,21.12-77.66,51.25,2.78.43,4.99,1.21,6.75,2.21,6.86-.16,16.05-.21,23.81-.23h0ZM243.1,39.63c0,7.21,5.85,13.06,13.06,13.06s13.06-5.85,13.06-13.06-5.85-13.06-13.06-13.06-13.06,5.85-13.06,13.06h0ZM239.49,28.82c2.74,0,4.95-2.22,4.95-4.95s-2.22-4.95-4.95-4.95-4.95,2.22-4.95,4.95,2.22,4.95,4.95,4.95h0ZM273.27,35.13c0,2.24,1.81,4.05,4.05,4.05s4.05-1.81,4.05-4.05-1.81-4.05-4.05-4.05-4.05,1.81-4.05,4.05h0ZM278.22,43.23c-4.48,0-8.11,3.63-8.11,8.11s3.63,8.11,8.11,8.11,8.11-3.63,8.11-8.11-3.63-8.11-8.11-8.11h0ZM280.78,119.07l-28.76-12.27.24-.16c-.34-.13-.65-.46-.65-.46,0,0,.02-.01.05-.03-.03-.07-.03-.16.03-.29l.55-1.28c-1.2-.39-2.18-.81-3.32-1.29-.52,5.86-2.01,21.31-2.69,23.31-.14.41-.4.54-.51.58-6.32,2.18-15.9.7-22.82-1.14l-.16,1.23c1.13-.15,2.16-.1,3.17.25,3.05,1.07,4.35,4.3,3.97,7.74-.31,2.83-1.76,5.82-4.29,7.74-1.04.79-2.01,1.27-3.3,1.56.03,1.54,0,3.08-.05,4.63.97.28,1.91.51,2.82.76,2.73.73,5.18,1.34,7.22,2.02,1.76.58,3.21,1.27,4.27,2.24,1.41,1.29,1.77,1.36,3.55,3.24l2.29,2.58.87-3.71c.26-.98.52-1.84.74-2.56-.01-.08,0-.17.03-.25.1-.25.39-.37.64-.27.13.02.29,0,.5.03.95.12,5.82,1.22,6.74,1.57.39.15.7.32.97.46.17.08.29.21.29.4l-1.2,6.44-1.28,6.52,2.86,3.03c3.49,4,9.2,11.29,11.52,15.8l.74,1.61c7.2-1.03,13-1.84,13-1.84.09-.01.19,0,.27.02,0,0,3.26.88,5.61,1.59l2.51.82c4.25-9.72,10.77-24.64,16.33-37.32l-1.19.13c-.67.07-1.04-.77-.51-1.21l2.84-2.37-3.91-.09c-.64-.01-.91-.83-.41-1.22l2.87-2.26-3.92-.12c-.62-.02-.89-.79-.42-1.19l1.48-1.26c-5.48-3.04-11.69-4.92-18.29-5.33.12-1.59.19-3.2.19-4.82,0-4.66-.51-9.19-1.49-13.55h0Z" style="fill: #3c5daa; fill-rule: evenodd; stroke-width: 0px;"/>
      <path d="M231.81,154.75c-1.06.99-2.08,2.2-2.96,3.36-.85,1.12-1.85,2.54-2.39,3.85l-.21.5-5.11-3.95.27-.33s0-.01,0-.02h0c.03-1.62.14-3.23.23-4.84.05-1.06.11-2.12.15-3.18l.02-.59.55.23c.82.34,1.64.66,2.48.94,1.24.41,2.49.76,3.75,1.1,1.13.31,2.26.62,3.37,1,.3.1.6.21.89.33l.69.27-1.75,1.34h0ZM214.86,201.61c-2.95.02-5.92.03-8.87.16-.63.03-1.28.05-1.9.12l-1.38.25-.06-.43c-.84-6.57-1.68-13.13-2.53-19.69h0s0-.03,0-.03c-.1-1.62-.38-3.66-1.52-4.91-1.21-1.32-3.18-1.58-4.87-1.62l-36.86-1.65.16-1.74c.07-.99.1-1.98.16-2.96.29-5.32.77-11.23,3.12-16.09.28-.57.58-1.14.93-1.67l.26-.39.36.31c1.34,1.17,2.77,2.24,4.27,3.2l.17.11.02.2c.11,1.05.3,1.87.61,2.87,1.49,4.78,4.72,9.09,9.04,11.66.27.16.55.32.84.46.67.33,1.37.61,2.07.86h.01s.03.01.03.01c.01,0,.02-.03.02-.04,0,0-.02-.02-.03-.02h-.02s-2.71-1.61-2.71-1.61h0c-4.36-2.82-7.06-6.6-8.76-11.48-.2-.57-.38-1.15-.56-1.73l-.32-1.01.92.53c.99.57,2.02,1.09,3.06,1.57l.16.07.06.17c.64,1.9,1.52,3.5,2.78,5.06,3.27,4.06,8.05,6.2,13.13,6.92,4.89.7,10.27.09,14.87-1.69,1.89-.73,3.67-1.71,5.24-2.99l.34-.28.26.36c.29.41.6.81.93,1.2h0s0,.02,0,.02c.25.34.52.67.8,1l.34.41,1.03,1.14c2.09,2.21,4.28,4.36,6.46,6.47,2.19,2.12,4.39,4.25,6.67,6.26.42.37.85.74,1.28,1.11l.63.52-5.69,1.4-.9-3.49c-.04-.14-.18-.23-.32-.2l-3.89.87c-.15.03-.24.19-.2.34l2.47,8.62-.69.28-.18-.33c-.27-.51-.54-1.02-.8-1.53-.46-.91-1-1.82-1.58-2.65-.4-.57-1.85-2.54-2.72-2.14-.56.25-.44,1.27-.36,1.75.11.68.31,1.37.52,2.03.33,1.03.73,2.05,1.14,3.05l4.85,11.11-2.3-.09h0ZM208.84,167.35h-.04s-.01,0-.02.01h0c-.41.44-1.08.86-1.59,1.16-.38.23-.78.45-1.17.67-4.49,2.45-9.81,3.63-14.91,3.66-.66,0-1.32-.01-1.98-.03-.44,0-.88,0-1.33-.02h-.02c-.13-.01-.14.13-.02.15h0s0,0,0,0c.44.1.87.2,1.32.26.66.09,1.33.13,2,.15,4.86.12,10.92-1.34,15.12-3.82,1-.59,1.86-1.25,2.6-2.14h0s0-.02,0-.02v-.04h0Z" style="fill: #000; fill-rule: evenodd; stroke-width: 0px;"/>
      <path d="M203.83,115.64c.41,1.1,1.79,2.29,3.77,3.52,2.08,1.3,4.81,2.61,7.9,3.79,5.47,2.09,12.06,3.8,18.12,4.42,4.48.46,8.66.33,11.87-.7.12-.49.27-1.43.45-2.73,1.65-12.02,3.21-28.46,3.86-40.88-1.58.48-4.22.35-6.57.09-6.79-.76-10.68-1.49-17.3-3.79-2.21-.77-5.1-2.07-6.11-3.59-5.22,13.33-10.58,26.61-15.99,39.87h0Z" style="fill: #fff; fill-rule: evenodd; stroke-width: 0px;"/>
      <path d="M233.55,81.61c2.28,15.31-8.81,44.19-8.81,44.19,0,0,13.59,3.27,20.75.86.88-.66,2.16-13.63,2.67-22.11s1.65-21.51,1.65-21.51c-8.7.52-11.95-.61-16.25-1.44Z" style="fill: #b2b2b2; fill-rule: evenodd; stroke-width: 0px;"/>
      <path d="M180.59,135.39c-.25.8-.56,1.72-.86,2.71-.07.23-.13.46-.19.69-.45,1.67-.9,3.49-1.2,5.26-.39,2.29-.53,4.49-.15,6.16.36,1.57,1.12,2.54,2.02,3.05.76.43,1.63.55,2.52.4.54-.09,1.09-.28,1.61-.56.7-.38,1.38-.92,1.9-1.58.36-.46.64-.98.85-1.53.11-.24,0-.54-.24-.65-.24-.11-.54,0-.65.24-.24.43-.56.79-.89,1.14-.79.83-1.8,1.44-2.8,1.59-.57.09-1.13.04-1.62-.24-.63-.36-1.12-1.06-1.38-2.17-.28-1.18-.26-2.64-.08-4.2.18-1.6.54-3.3.91-4.93.17-.72.34-1.43.5-2.11.25-1.12.45-2.17.63-3.06.06-.24-.09-.48-.32-.54-.24-.06-.48.09-.54.32h0ZM220.33,184.33l5.15-1.26c.17.13.34.25.5.36.82,6.98,2.11,17.93,2.83,23.36.14,1.06.26,1.91.35,2.48-.74-.03-1.77-.06-2.39-.08l-6.44-24.86h0ZM224.61,182.38l-4.5,1.11-.8-3.09c-.09-.36-.45-.58-.81-.5l-3.89.87c-.18.04-.34.16-.44.32-.1.16-.12.36-.07.54l2.36,8.27c-.98-1.81-2.24-4.74-3.57-6.09-1.65-1.68-3.06-.63-2.67,1.78.18,1.08.69,2.77,1.7,5.18.97,2.32,2.13,5,3.28,7.59l1.31,2.92-13.49.03s-2.19-17.04-2.49-19.33c-.15-2.39-.62-4.06-1.63-5.16-1.03-1.13-2.64-1.7-5.17-1.76l-36.41-1.63s0-.03,0-.04c.03-.38.09-.81.12-1.28.06-.87.1-1.87.16-2.97.16-2.91.4-6.48,1.08-9.8.32-1.54.73-3.03,1.23-4.37.23-.62.49-1.21.76-1.76.28-.58.57-1.13.9-1.62,1.38,1.21,2.83,2.29,4.32,3.24.04.36.08.7.14,1.05.12.66.3,1.29.49,1.9.82,2.61,2.05,4.86,3.52,6.78,1.61,2.1,3.53,3.82,5.69,5.11.28.17.57.33.86.48.69.34,1.4.62,2.12.88.22.1.48,0,.58-.23.1-.22,0-.48-.23-.58-.65-.33-1.27-.71-1.89-1.09-.26-.16-.53-.33-.79-.5-1.98-1.28-3.78-2.88-5.28-4.87-1.37-1.82-2.47-3.96-3.31-6.39-.19-.56-.37-1.13-.56-1.72,1.01.58,2.05,1.11,3.1,1.58.21.63.45,1.24.72,1.82.59,1.25,1.32,2.37,2.13,3.37,3.36,4.17,8.26,6.34,13.39,7.07,5.19.74,10.66,0,15.08-1.72.63-.24,1.23-.51,1.81-.79,1.33-.66,2.52-1.43,3.54-2.26.28.4.6.81.95,1.23.2.27.47.61.81,1.02-.11,0-.22.06-.3.15-.4.39-1.03.81-1.81,1.27-.27.15-.55.31-.85.48-1.81.99-4.27,2-7.13,2.7-2.32.56-4.89.89-7.58.91-.65,0-1.3-.01-1.97-.03-.44,0-.88,0-1.32-.02-.27-.03-.51.15-.55.42-.04.27.15.51.42.55.45.1.9.2,1.35.26.69.1,1.37.14,2.05.15,2.81.07,5.5-.35,7.91-.95,2.99-.75,5.57-1.83,7.42-2.92.31-.19.61-.37.87-.56.83-.59,1.45-1.17,1.84-1.67.05-.06.09-.13.1-.2l.13.15c.24.28.51.57.8.87,1.68,1.78,4.03,4.11,6.48,6.49,2.27,2.2,4.63,4.46,6.68,6.28.45.39.87.77,1.29,1.11h0ZM194.12,138.7c1.18,0,2.14.96,2.14,2.14s-.96,2.14-2.14,2.14-2.14-.96-2.14-2.14.96-2.14,2.14-2.14h0ZM170.7,136c1.31,0,2.36,1.06,2.36,2.36s-1.06,2.36-2.36,2.36-2.36-1.06-2.36-2.36,1.06-2.36,2.36-2.36h0ZM209.6,86.14c1.16-1.86.87-3.39.13-4.27-.68-.81-1.76-1.1-2.68-.73-.53.22-1.01.66-1.32,1.37-.35.8-.9,1.19-1.36,1.09-.46-.1-.66-.66-.45-1.55.34-1.4-.33-2.38-1.16-2.79-.06-.03-.12-.05-.18-.08-.12-1.54.19-2.59.69-3.21.47-.59,1.1-.77,1.49-.49.25.18.34.53.25,1-.4,2.07.68,2.96,1.74,2.71.75-.17,1.64-.99,2.08-2.61.18-.67.48-1.17.82-1.52.06-.03.12-.07.16-.13l.03-.03c.25-.2.53-.32.79-.36.41-.06.79.09.98.45.17.32.2.77.06,1.33-.32,1.22-.03,2.26.51,2.86.32.35.74.56,1.19.6.53.04,1.14-.17,1.72-.74.34-.34.83-.52,1.28-.51.29,0,.56.1.74.31.35.38.4,1.06.03,2.12-1.17,2.8-2.67,6.38-4.23,10.17l-.17.4c-4.67-2.96-10.35-5.22-16.27-6.44.08-.12.1-.28.04-.42-.53-1.26-.58-2.18-.36-2.79.32-.89,1.33-.99,1.58-.3.43,1.14,1.31,1.47,2.05,1.14.52-.23,1.03-.86,1.21-1.93.07-.38.24-.64.48-.77.27-.14.6-.12.89.03.53.26.9.9.69,1.79-.38,1.56.31,2.43,1.11,2.61.76.17,1.79-.28,2.36-1.6.2-.47.5-.77.84-.91.58-.24,1.25-.03,1.67.48.57.67.68,1.82-.2,3.24-.13.21-.07.48.14.61.21.13.48.07.61-.14h0ZM201.69,79.07c-.22.02-.43.08-.62.19-.44.23-.81.68-.93,1.4-.12.68-.37,1.12-.7,1.27-.34.15-.67-.12-.87-.65-.44-1.18-1.97-1.4-2.84-.38-.58.68-.89,1.99-.05,4.04-4.92-.93-9.98-1.15-14.73-.46-.07.01-.15.02-.22.03-1.47-.13-2.29-.69-2.62-1.45-.29-.66-.19-1.43.12-2.09.32-.66.86-1.21,1.51-1.35,1.77-.37,2.49-1.62,2.21-2.91-.2-.93-.99-1.94-2.45-2.64-1.02-.49-1.32-1.45-1.06-2.18.13-.37.41-.67.8-.77.36-.09.79-.02,1.28.23,1.56.8,3.08.52,3.8-.21.78-.78.91-2.22-.86-3.7-.45-.37-.68-.78-.73-1.2-.1-.74.33-1.45.91-1.92.49-.4,1.11-.63,1.67-.49.48.12.88.52,1.15,1.25.79,2.14,2.24,2.95,3.44,2.76,1.19-.18,2.35-1.39,2.49-3.65.12-1.91.94-2.73,1.89-2.68,1.08.05,2.14,1.13,1.99,2.56-.24,2.22,1.96,3.53,3.57,2.91,1.07-.41,2.03-1.71,1.54-4.39-.35-1.92.08-3.04.88-3.41.94-.45,2.15.28,2.31,1.71.23,2.09,1.1,3.16,2.04,3.5,1.16.42,2.63-.2,3.67-1.83.62-.97,2.16-.85,2.71.17.42.78.25,1.99-.88,3.63-1.02,1.48-.73,2.8.02,3.52.79.75,2.2.94,3.51-.12,1.48-1.21,2.78-1.02,3.26-.03.25.52.27,1.2,0,1.93-.21.6-.6,1.22-1.22,1.81-.7.68-.9,1.61-.71,2.46.19.84.73,1.6,1.48,1.95l-.36.86c-.08-.19-.19-.35-.31-.48-.35-.38-.84-.58-1.37-.59-.68-.02-1.42.26-1.93.77-.61.6-1.24.61-1.64.17-.39-.43-.54-1.17-.31-2.04.28-1.07.04-1.86-.4-2.33-.4-.43-.99-.63-1.62-.54-.02,0-.04,0-.06,0,.19-.76.02-1.42-.32-1.87-.65-.86-2-1.1-3.12.04-.3.31-.65.59-.99.76-.3.14-.61.2-.87,0-.24-.19-.28-.49-.26-.82.04-.57.27-1.24.45-1.83.5-1.67-.11-2.66-.85-2.96-.86-.35-2.12.14-2.52,1.75-.17.67-.47,1.12-.82,1.28-.36.17-.72-.06-.94-.58-.58-1.36-2.3-1.56-3.13-.47-.1.13-.18.27-.25.44-.1-.17-.2-.34-.29-.5-.77-1.45-2.03-1.87-2.98-1.64-.66.16-1.18.63-1.39,1.31-.14.49-.12,1.1.18,1.8.15.34.2.63.16.86-.02.14-.09.26-.19.32-.11.06-.24.07-.39.03-.23-.06-.47-.23-.71-.5-1.37-1.58-3-1.45-3.85-.58-.78.8-1,2.33.34,3.92.35.42.75.85,1.08,1.29.22.29.4.58.5.87.13.38.05.83-.27,1.07-.24.18-.61.21-1.09.02-.1-.47-.25-.85-.43-1.16-.33-.57-.78-.89-1.22-1-.55-.14-1.13.01-1.59.45-.6.57-1.01,1.66-.74,3.2.02.12,0,.48-.25.67-.17.13-.44.16-.84.08-.96-.2-1.85.33-2.2,1.05-.21.43-.24.93,0,1.38.17.32.47.62.96.85.14.07.3.13.45.17.17.05.34.08.5.09.24.02.45-.17.47-.41.02-.24-.17-.45-.41-.47-.1,0-.21-.03-.31-.06-.11-.03-.22-.08-.33-.12-.28-.13-.46-.28-.55-.46-.1-.19-.08-.4.01-.58.19-.4.69-.69,1.23-.57.74.16,1.22,0,1.54-.23.6-.44.65-1.25.6-1.54-.21-1.14.03-1.98.47-2.4.22-.21.5-.3.76-.23.26.07.49.27.68.59.32.55.5,1.42.42,2.64-.12,1.71.7,2.69,1.59,2.91.94.22,2.1-.36,2.58-2.06.32-1.17,1.13-1.63,1.74-1.3.57.3.83,1.16.45,2.44-.07.23.06.48.29.55.23.07.48-.06.55-.29.56-1.86-.06-3.04-.88-3.47-.24-.13-.51-.19-.79-.2-.9-1.1-.89-2.14-.35-2.69.57-.59,1.64-.53,2.56.54.77.89,1.67.98,2.22.65.54-.33.87-1.14.38-2.28-.44-1.01-.07-1.74.6-1.91.65-.16,1.46.21,1.99,1.2.17.31.38.63.57.97.1.19.21.39.28.61.08.23.34.35.56.26.23-.08.35-.33.27-.56-.07-.2-.16-.39-.25-.56-.21-.41-.46-.77-.65-1.13-.77-1.45-2.03-1.87-2.98-1.64-.05.01-.1.03-.16.04-.36-1.03-.29-1.74.02-2.15.43-.57,1.32-.42,1.62.29.36.85.99,1.2,1.59,1.17.71-.04,1.51-.68,1.84-2,.23-.92.84-1.35,1.34-1.15.19.08.35.26.43.53.1.34.09.8-.09,1.36-.24.8-.54,1.71-.48,2.43.04.48.22.88.6,1.18.45.35.95.39,1.47.23.54-.17,1.1-.58,1.57-1.06.65-.66,1.42-.62,1.79-.13.34.44.32,1.17-.24,1.98-.5.44-.93,1.11-1.19,2.04-.33,1.19-.89,1.86-1.43,1.98-.23.05-.43-.03-.56-.24-.19-.31-.24-.79-.11-1.45.18-.91-.13-1.54-.6-1.88-.52-.37-1.28-.41-1.99.03-.88.54-1.73,1.89-1.59,4.27h0ZM196.65,71.03c.05.33.15.7.3,1.09-.21.21-.37.48-.47.8-.14.49-.12,1.1.18,1.8.15.34.2.63.16.86-.02.14-.09.26-.19.32-.11.06-.24.07-.39.03-.23-.06-.47-.23-.71-.5-1.37-1.58-3-1.45-3.85-.58-.72.74-.96,2.09.05,3.54-.55.3-1.03.88-1.29,1.81-.3,1.09-.93,1.59-1.52,1.44-.59-.14-1-.86-.92-1.99.03-.37.03-.72.01-1.04.64.14,1.14,0,1.49-.27.61-.46.82-1.33.57-2.06-.13-.36-.35-.74-.62-1.11-.34-.45-.75-.9-1.11-1.34-.94-1.12-.94-2.17-.39-2.74.57-.59,1.64-.53,2.56.54.77.89,1.67.98,2.22.65.54-.33.87-1.14.38-2.28-.44-1.01-.07-1.75.6-1.91.65-.16,1.46.21,1.99,1.2.16.31.38.62.57.97.11.19.21.39.28.61.02.05.05.1.08.14h0ZM82.1,64.7l-5.32-.76c.31-1.55,1.08-2.94,2.15-4.02,1.33-1.33,3.13-2.18,5.12-2.29h0v5.37c-.52.09-.98.34-1.34.7-.28.28-.49.62-.61.99h0ZM76.65,64.82l5.32.76c.02.66.3,1.26.74,1.69.21.22.47.39.75.52-.1.37-.19.74-.28,1.11-.33,1.37-.62,2.76-.97,4.12-1.26-.38-2.38-1.06-3.28-1.97-1.42-1.42-2.31-3.39-2.31-5.56,0-.23.01-.45.03-.67h0ZM83.07,73.23c.35-1.37.64-2.75.97-4.12.09-.37.18-.74.28-1.1h0c.06,0,.12,0,.17,0,.08,0,.15,0,.23-.01l1.42,5.11s.02.05.03.07c-.54.12-1.1.18-1.68.18-.48,0-.96-.04-1.42-.13h0ZM87,72.95s0-.05-.01-.08l-1.42-5.1c.26-.12.5-.29.7-.5.46-.46.74-1.08.74-1.78,0-.09,0-.19-.02-.28l5.15-1.53c.05.23.1.45.13.68.05.37.08.75.08,1.13,0,2.17-.88,4.14-2.31,5.56-.85.85-1.89,1.5-3.05,1.89h0ZM93.79,61.62c.23-.08.35-.33.27-.56-.47-1.38-1.27-2.59-2.3-3.55-1.03-.96-2.29-1.68-3.7-2.06-.37-.1-.75-.18-1.13-.23-.38-.05-.76-.08-1.15-.08-.24,0-.44.2-.44.44v6.98c0,.24.2.44.44.44l.23.03c.14.04.27.11.38.21.1.1.19.22.23.36.08.23.33.35.56.27l6.6-2.26h0ZM86.23,62.18v-6.14c.2.01.4.03.59.06.34.05.68.11,1.02.2,1.26.34,2.4.98,3.33,1.85.82.77,1.48,1.72,1.91,2.78h0l-5.81,1.99c-.08-.12-.17-.22-.27-.32-.21-.19-.46-.34-.75-.42h-.02ZM84.93,57.19c0-.24-.2-.44-.44-.44-2.42,0-4.6.98-6.18,2.56-1.58,1.58-2.56,3.77-2.56,6.18s.98,4.6,2.56,6.18c1.58,1.58,3.77,2.56,6.18,2.56s4.6-.98,6.18-2.56c1.58-1.58,2.56-3.77,2.56-6.18,0-.42-.03-.84-.09-1.26-.06-.42-.15-.83-.27-1.23-.07-.23-.31-.37-.55-.3l-5.97,1.78c-.23.07-.37.31-.3.55.02.08.04.15.05.23.01.08.02.16.02.24,0,.45-.18.86-.48,1.16-.3.3-.7.48-1.16.48s-.86-.18-1.16-.48c-.3-.3-.48-.7-.48-1.16s.18-.86.48-1.16c.3-.3.7-.48,1.16-.48.24,0,.44-.2.44-.44v-6.23h0ZM115.32,122.47c.29.32.28.72.11,1.17-.23.61-.75,1.27-1.42,1.92-.66.63-1.46,1.25-2.31,1.78-.05-.41-.13-.81-.22-1.2,1.2-.77,2.11-1.61,2.63-2.37.57-.82.69-1.58.4-2.12-.2-.38-.61-.69-1.29-.83-.24-.05-.47.11-.52.35-.05.24.11.47.34.52.35.07.58.18.68.37.1.19.05.43-.06.7-.16.38-.46.79-.88,1.21-.42.42-.94.86-1.56,1.27-.64-2.1-1.79-3.98-3.3-5.5-2.39-2.39-5.69-3.87-9.33-3.87s-6.94,1.48-9.33,3.87c-2.39,2.39-3.87,5.69-3.87,9.33,0,.69.05,1.37.16,2.03-.47-.12-.9-.27-1.29-.42-.62-.25-1.13-.55-1.48-.87.35-.24.81-.47,1.39-.7.23-.09.34-.34.25-.57-.09-.23-.34-.34-.57-.25-.65.25-1.16.52-1.56.79-.01-.05-.02-.11-.02-.16,0-.28.15-.55.45-.83.34-.33.85-.64,1.55-.95.22-.1.32-.36.23-.58-.1-.22-.36-.32-.58-.23-1.52.67-2.26,1.43-2.46,2.14-.12.41-.07.83.13,1.22-.3.35-.45.71-.49,1.06-.06.57.18,1.13.68,1.65.9.92,2.72,1.7,4.75,2.01.66,1.49,1.6,2.84,2.74,3.98,2.39,2.39,5.69,3.87,9.33,3.87s6.94-1.48,9.33-3.87c2.39-2.39,3.87-5.69,3.87-9.33,0-.26,0-.52-.02-.77,1.41-.82,2.74-1.89,3.6-2.94.54-.66.89-1.31,1-1.9.11-.6-.02-1.14-.42-1.59-.16-.18-.44-.19-.62-.03-.18.16-.19.44-.03.62h0ZM110.39,128.05c-.59.29-1.18.51-1.73.66-.23.06-.37.31-.31.54.06.23.3.37.54.31.5-.13,1.02-.33,1.55-.57v.07c0,.84-.09,1.66-.25,2.44-.51-.14-1.08-.21-1.63-.23-.88-.03-1.71.05-2.1.12-.13.02-.22.04-.26.06-.13.04-.19.12-.21.15-.25.34-.42.81-.55,1.32-.15.6-.26,1.27-.46,1.84-.13.38-.3.71-.6.88-.09.05-.2.15-.31.29-.18.22-.41.57-.67.97-.53.82-1.2,1.91-1.91,2.48-.25.2-.5.35-.76.31-.14-.02-.27-.11-.41-.24,0-.03-.01-.11-.01-.16,0-.12.02-.27.05-.42.12-.73.34-1.68.19-2.39-.13-.6-.48-1.07-1.25-1.25-.63-.15-.91-.78-.97-1.41-.04-.41.02-.83.19-1.15.1-.19.23-.34.41-.4.34-.1,1.22-.29,2.18-.49,1.42-.3,3.01-.61,3.31-.66.99-.16,1.48-.85,1.6-1.8.12-.92-.16-2.12-.65-3.19-.17-.38-.43-.54-.72-.61-.21-.05-.44-.04-.69,0-.22.03-.45.08-.66.04-.31-.06-.54,0-.71.11-.27.17-.43.49-.43.92,0,.55.26,1.29.6,1.81.2.3.43.52.64.62-.04.02-.07.05-.11.06-.2.1-.43.18-.59.2-.05-.07-.16-.2-.23-.32-.27-.45-.54-1.06-.7-1.37-.08-.16-.15-.26-.19-.3-.14-.15-.29-.15-.38-.15-.1,0-.19.05-.26.12-.04,0-.2.04-.31.05-.26.03-.54.06-.72.14-.28.12-.43.32-.44.62-.02.64-.36,1.07-.75,1.04-.14-.01-.27-.1-.37-.25-.15-.22-.24-.55-.25-.99-.01-.44.09-.67.3-.81.23-.15.53-.21.85-.31.35-.11.72-.24,1.05-.47.4-.27.73-.7,1-1.19.52-.96.82-2.2,1.16-2.92h.02c.29-.22.95-.43,1.69-.82.4-.21.81-.47,1.21-.79.24-.2.48-.42.7-.66.31.26.61.53.9.81,1.44,1.44,2.5,3.24,3.05,5.25-.65.35-1.36.66-2.13.93-.23.08-.35.33-.27.56.08.23.33.35.56.27.73-.26,1.41-.55,2.04-.88.07.39.13.79.16,1.2h0ZM88.15,134.56c.27,0,.54,0,.81,0,.24-.01.43-.22.42-.46,0-.24-.21-.43-.46-.42-.4.02-.8.01-1.19-.02-.18-.44-.34-.89-.47-1.35.46.06.94.11,1.43.14.1.16.23.31.38.45.45.42,1.12.74,1.68,1.09.32.2.62.39.73.66.18.44.42.91.44,1.32,0,.19-.05.36-.24.48-.65.42-.82.99-.73,1.6-.23-.2-.46-.41-.67-.62-.84-.84-1.55-1.81-2.11-2.87h0ZM86.17,133.46c-1.61-.31-3.01-.93-3.74-1.67-.29-.3-.47-.61-.43-.94.02-.14.07-.29.17-.43.08.07.16.14.25.21.74.58,1.91,1.08,3.34,1.41.11.48.25.96.41,1.42h0ZM89.95,132.48c1.3-.01,2.67-.16,4.03-.47.24-.05.39-.29.33-.53-.05-.24-.29-.39-.53-.33-1.51.34-3.03.48-4.45.45,0-.06,0-.11.01-.17.09-.53.51-.63.9-.76.49-.17.96-.35,1.22-.75.15-.23.25-.54.21-.97-.03-.46-.1-.75-.19-.97-.14-.36-.36-.52-.6-1.13-.02-.06-.01-.13,0-.19.03-.11.09-.23.16-.35.23-.43.56-.9.7-1.39.12-.43.11-.88-.15-1.34-.37-.65-.66-1.24-1.17-1.69-.22-.2-.48-.37-.79-.51.2-.23.4-.45.62-.66.93-.93,2.01-1.7,3.2-2.28.24.16.55.3.94.4.56.14,1.27.17,2.03.14,1.66-.07,3.57-.51,4.83-1.34.03-.02.06-.04.08-.07,1.47.35,2.83.97,4.03,1.8-.17.19-.36.36-.55.51-.35.28-.72.51-1.07.7-.62.33-1.19.54-1.54.73-.29.15-.46.31-.53.45-.35.71-.64,1.97-1.16,2.93-.2.36-.42.68-.72.88-.39.27-.83.36-1.21.47-.42.13-.78.3-1.03.61-.22.27-.37.66-.36,1.26.04,1.45.77,2.04,1.43,2.09.74.06,1.59-.57,1.7-1.74.15-.02.46-.06.64-.09.02,0,.04,0,.06-.01.2.41.51,1.07.79,1.48.16.23.33.4.46.47.14.07.45.1.8,0,.47-.13,1.02-.44,1.22-.74.12-.17.15-.35.12-.53-.04-.2-.19-.46-.64-.63-.07-.03-.14-.11-.21-.2-.13-.17-.25-.38-.34-.61-.07-.17-.12-.34-.16-.5-.02-.08-.03-.15-.03-.23,0-.08.01-.2.02-.25.02,0,.04,0,.06,0,.4.07.85-.06,1.21-.05.09,0,.16.02.21.12.42.91.67,1.93.58,2.71-.07.53-.31.94-.86,1.03-.3.05-1.91.37-3.35.67-.98.2-1.88.4-2.24.5-.41.12-.75.42-.97.85-.23.45-.34,1.05-.28,1.64.09,1.01.65,1.96,1.66,2.2.35.08.52.3.58.58.07.33.03.73-.03,1.11-.07.47-.18.93-.21,1.29-.04.44.05.77.22.96.3.33.62.49.94.54.48.07.97-.11,1.45-.49.77-.63,1.52-1.8,2.09-2.71.2-.32.37-.6.52-.8.07-.09.12-.17.17-.2.32-.2.57-.5.75-.86.26-.52.39-1.2.53-1.87.11-.55.22-1.09.45-1.48.03,0,.05-.01.08-.02.44-.08,1.4-.19,2.34-.12.36.03.73.08,1.05.17-.55,2.01-1.62,3.8-3.05,5.23-2.14,2.14-5.1,3.46-8.36,3.46-2.44,0-4.71-.74-6.59-2.01-.14-.3-.26-.61-.29-.92-.03-.3.05-.58.38-.78.52-.32.69-.76.67-1.25-.02-.5-.28-1.08-.49-1.61-.17-.43-.58-.78-1.08-1.09-.4-.25-.87-.48-1.26-.76h0ZM88.43,131.56c-.49-.03-.96-.09-1.41-.16-.15-.75-.23-1.53-.23-2.33,0-2.61.85-5.02,2.28-6.97.32.11.57.26.77.44.43.39.67.91.99,1.47.13.23.13.45.06.67-.15.52-.55,1-.75,1.44-.17.37-.22.73-.09,1.05.24.61.45.77.6,1.13.06.16.1.37.13.7.01.18,0,.31-.07.41-.12.21-.38.27-.63.35-.43.15-.88.3-1.2.63-.21.21-.37.49-.43.88-.02.1-.02.19-.03.28h0ZM99.96,117.32c-.84.36-1.84.59-2.8.69-.99.11-1.93.08-2.63-.04,1.27-.47,2.65-.73,4.08-.73.45,0,.9.03,1.35.08h0ZM101.53,127.91s.01-.01.02-.02l-.02.02h0ZM143.11,79.28c0-.24-.2-.44-.44-.44h-2.8c-.24,0-.44.2-.44.44v11.07h-.92v-3.36c0-.24-.2-.44-.44-.44h-2.8c-.24,0-.44.2-.44.44v3.36h-1.12v-5.06c0-.24-.2-.44-.44-.44h-2.8c-.24,0-.44.2-.44.44v5.06h-1.02v-7.77c0-.24-.2-.44-.44-.44h-2.8c-.24,0-.44.2-.44.44v7.77h-1.22v-4.86c0-.24-.2-.44-.44-.44h-2.8c-.24,0-.44.2-.44.44v4.86h-1.12v-7.37c0-.24-.2-.44-.44-.44h-2.8c-.24,0-.44.2-.44.44v7.37h-1.12v-13.97c0-.24-.2-.44-.44-.44h-2.8c-.24,0-.44.2-.44.44v13.97h-1.02v-18.77c0-.24-.2-.44-.44-.44s-.44.2-.44.44v19.21c0,.24.2.44.44.44h34.83c.24,0,.44-.2.44-.44s-.2-.44-.44-.44h-1.06v-11.07h0ZM142.23,79.72v10.63h-1.92v-10.63h1.92ZM137.63,87.42v2.92h-1.92v-2.92h1.92ZM132.82,85.72v4.62h-1.92v-4.62h1.92ZM128.12,83.02v7.33h-1.92v-7.33h1.92ZM123.22,85.92v4.42h-1.92v-4.42h1.92ZM118.41,83.42v6.93h-1.92v-6.93h1.92ZM113.61,76.81v13.53h-1.92v-13.53h1.92ZM183.27,87.49c-.26.53-.68.79-1.07,1.03-.38.23-.76.44-1.05.74-.32.33-.55.76-.59,1.41-.05.78.31,1.44.8,2.06.38.49.84.96,1.12,1.48.19.37.27.77.1,1.24-.23.62-.77.98-1.33,1.32-.68.41-1.4.79-1.89,1.36-.27.32-.48.7-.58,1.17-.12.55-.04,1.04.17,1.5.33.74,1.02,1.39,1.61,2.07.49.57.92,1.16.85,1.92-.04.48-.3.86-.65,1.19-.43.42-1,.77-1.54,1.14-.51.34-.99.7-1.37,1.11-.56-.35-1.1-.71-1.61-1.09.35-.25.68-.51.95-.8.41-.44.69-.94.74-1.55.05-.53-.07-1-.29-1.44-.37-.74-1.04-1.38-1.61-2.03-.49-.56-.91-1.12-.75-1.85.07-.31.21-.56.39-.77.43-.5,1.08-.81,1.68-1.17.73-.44,1.4-.94,1.7-1.74.28-.74.16-1.37-.14-1.95-.29-.56-.78-1.06-1.2-1.59-.34-.44-.65-.88-.61-1.43.03-.4.16-.66.35-.85.24-.24.56-.4.88-.6.53-.32,1.06-.7,1.41-1.41.11-.22.01-.48-.2-.59-.22-.11-.48-.01-.59.2-.26.53-.67.8-1.07,1.04-.38.23-.76.44-1.06.73-.33.33-.57.76-.61,1.42-.04.64.19,1.19.55,1.71.42.61,1.03,1.16,1.36,1.79.19.36.27.76.1,1.22-.23.61-.77.96-1.33,1.3-.68.41-1.4.78-1.89,1.34-.28.32-.49.69-.59,1.16-.12.54-.04,1.03.17,1.49.33.73,1.02,1.37,1.61,2.05.49.56.92,1.14.85,1.89-.04.41-.24.74-.51,1.03-.29.31-.65.58-1.03.84-.7-.56-1.35-1.15-1.94-1.74.26-.49.3-.97.19-1.43-.19-.84-.93-1.65-1.63-2.47-.29-.34-.58-.69-.78-1.04-.19-.34-.32-.68-.27-1.05.06-.42.23-.75.47-1.03.42-.5,1.02-.85,1.55-1.19.15-.1.59-.32.96-.67.32-.3.59-.68.68-1.16.12-.61-.03-1.39-.89-2.34-.35-.39-.51-.89-.52-1.38,0-.52.16-1.03.48-1.37.16-.18.15-.46-.03-.62-.18-.16-.46-.15-.62.03-.46.5-.72,1.23-.71,1.98,0,.69.24,1.4.74,1.96.59.65.76,1.16.68,1.57-.07.35-.32.61-.56.81-.29.23-.58.37-.69.45-.61.39-1.28.8-1.75,1.36-.34.4-.59.88-.67,1.48-.1.73.22,1.43.71,2.11.56.76,1.35,1.49,1.77,2.24.19.34.3.69.21,1.05-.61-.68-1.14-1.36-1.57-2.02-.7-1.06-1.57-1.65-2.52-1.84-.3-.06-.6-.08-.92-.06-.25-.32-.46-.66-.6-1.02-.14-.36-.2-.74-.12-1.14.16-.75.71-1.06,1.24-1.35.52-.28,1.03-.55,1.37-.96.24-.29.4-.64.43-1.12.02-.33-.03-.6-.13-.85-.1-.26-.26-.5-.42-.77-.23-.37-.46-.81-.47-1.55,0-.24-.2-.44-.45-.43-.24,0-.44.2-.43.45,0,.45.08.81.18,1.12.15.47.38.81.58,1.13.16.26.29.5.27.84-.05.59-.43.86-.86,1.11-.58.33-1.23.62-1.68,1.17-.22.27-.4.61-.49,1.03-.13.57-.05,1.12.15,1.65.12.3.28.59.47.87-.73.22-1.5.63-2.26,1.23-.82-.82-1.08-1.84-.96-2.77.14-1.16.84-2.2,1.78-2.52.23-.08.35-.33.28-.56-.08-.23-.33-.35-.56-.28-1.22.41-2.19,1.73-2.37,3.24-.14,1.16.17,2.43,1.17,3.46-.81.77-1.63,1.75-2.39,2.94-.74,1.15-1.44,2.5-2.07,4.01.06-.6.12-1.2.19-1.79.2-1.71.44-3.38.87-5.02.54-2.08,1.36-4.11,2.7-6.1,5.1-7.6,13.91-10.71,23.2-10.77,9.02-.06,18.5,2.77,25.58,7.26.05.03.1.05.15.07-.46,1.13-.93,2.27-1.4,3.4-.1-.14-.18-.27-.25-.42-.12-.24-.18-.49-.17-.76.02-.28.09-.5.2-.67.14-.21.34-.36.56-.49.21-.13.27-.4.14-.61-.13-.21-.4-.27-.61-.14-.32.2-.61.43-.82.75-.19.28-.32.63-.35,1.1-.02.35.04.67.16.98.16.41.42.78.71,1.15.01.02.03.03.04.04-1.38,3.37-2.72,6.66-3.87,9.48v-.02c-.29-.74-.88-1.29-1.37-1.87-.37-.45-.67-.93-.51-1.64.07-.31.21-.57.39-.78.43-.5,1.08-.82,1.68-1.18.73-.44,1.39-.95,1.7-1.76.28-.75.16-1.38-.14-1.96-.29-.57-.79-1.08-1.2-1.62-.35-.44-.65-.9-.61-1.46.02-.37.14-.63.31-.82.36-.4.9-.6,1.39-.95.2-.14.24-.42.09-.62-.14-.2-.42-.24-.62-.09-.53.39-1.12.63-1.52,1.07-.29.32-.49.73-.53,1.35-.05.78.31,1.44.8,2.05.38.49.84.96,1.12,1.48.19.37.28.77.1,1.24-.23.62-.77.98-1.33,1.32-.68.41-1.4.79-1.89,1.36-.27.32-.48.7-.58,1.17-.11.5-.07.93.06,1.31.2.6.64,1.08,1.08,1.58.48.54.97,1.1.89,2,0,.02,0,.03,0,.05-.67.39-1.87.9-3.41,1.41.29-.38.49-.81.53-1.31.05-.53-.07-1-.29-1.44-.37-.74-1.04-1.38-1.61-2.03-.49-.56-.91-1.12-.75-1.85.07-.31.21-.56.39-.77.43-.5,1.08-.81,1.68-1.17.73-.44,1.4-.94,1.7-1.74.28-.74.16-1.37-.14-1.95-.29-.56-.78-1.06-1.2-1.59-.34-.44-.65-.88-.61-1.43.02-.37.14-.62.31-.81.27-.3.66-.47,1.04-.71.42-.26.84-.57,1.15-1.07.13-.21.06-.48-.14-.61-.21-.13-.48-.06-.61.14-.29.46-.7.7-1.09.92-.37.22-.73.43-1,.72-.29.32-.5.73-.54,1.35-.04.63.19,1.19.55,1.71.42.61,1.03,1.16,1.36,1.79.19.36.27.76.1,1.22-.23.61-.77.96-1.33,1.3-.68.41-1.4.78-1.89,1.34-.28.32-.49.69-.59,1.16-.12.54-.04,1.03.17,1.49.33.73,1.02,1.37,1.61,2.04.49.56.92,1.14.85,1.89-.03.35-.19.65-.41.91-.35.43-.87.78-1.39,1.12h0c-.16.05-.31.09-.47.14-.94.25-1.94.5-2.98.71-.59.12-1.2.23-1.82.33.29-.36.7-.66,1.13-.95.77-.53,1.61-1.03,2.15-1.67.34-.41.57-.87.62-1.42.05-.53-.07-1-.29-1.44-.37-.74-1.04-1.38-1.61-2.03-.49-.56-.91-1.12-.75-1.85.07-.31.21-.56.39-.77.43-.5,1.08-.81,1.68-1.17.73-.44,1.4-.94,1.7-1.74.28-.74.16-1.37-.14-1.95-.29-.56-.78-1.06-1.2-1.59-.34-.44-.65-.89-.61-1.43.03-.4.16-.66.35-.85.24-.24.56-.4.88-.59.53-.32,1.06-.7,1.41-1.41.11-.22.01-.48-.2-.59-.22-.11-.48-.01-.59.2-.26.53-.67.8-1.06,1.04-.39.23-.76.44-1.06.73-.33.33-.57.76-.61,1.42-.04.63.19,1.19.55,1.71.42.61,1.03,1.16,1.36,1.79.19.36.27.76.1,1.22-.23.61-.77.96-1.33,1.3-.68.41-1.4.78-1.89,1.34-.28.32-.49.69-.59,1.16-.12.54-.04,1.03.17,1.49.33.73,1.02,1.37,1.61,2.04.49.56.92,1.14.85,1.89-.07.75-.66,1.24-1.32,1.71-.74.52-1.58,1-2.16,1.6-.28.29-.5.61-.65.96-1.14.15-2.31.25-3.48.29.04-.42.23-.76.51-1.06.66-.72,1.71-1.24,2.5-1.89.69-.56,1.19-1.21,1.27-2.06.05-.53-.07-1.01-.28-1.45-.37-.75-1.04-1.39-1.61-2.05-.49-.57-.91-1.14-.75-1.87.07-.31.21-.57.39-.78.43-.5,1.08-.82,1.68-1.18.73-.44,1.39-.95,1.7-1.76.28-.75.16-1.38-.14-1.96-.29-.57-.79-1.08-1.2-1.61-.35-.44-.65-.9-.61-1.46.05-.75.49-1.02.97-1.31.42-.25.88-.51,1.25-.93.33-.37.59-.87.72-1.59.04-.24-.12-.47-.36-.51-.24-.04-.47.12-.51.36-.2,1.15-.87,1.52-1.46,1.87-.42.25-.81.5-1.08.87-.22.3-.37.67-.4,1.18-.05.78.31,1.44.8,2.06.38.49.84.96,1.12,1.48.19.37.28.77.1,1.24-.23.62-.77.98-1.33,1.32-.68.41-1.4.79-1.89,1.36-.27.32-.48.7-.58,1.17-.12.55-.04,1.04.17,1.5.33.74,1.02,1.38,1.61,2.07.49.57.92,1.16.85,1.91-.07.77-.68,1.28-1.35,1.76-.76.54-1.62,1.04-2.19,1.67-.43.47-.72,1.01-.75,1.67-.94,0-1.88-.04-2.81-.14-.11-.01-.22-.02-.34-.04-.1-.62.13-1.09.49-1.48.66-.71,1.7-1.22,2.5-1.86.69-.55,1.2-1.2,1.27-2.04.05-.53-.07-1-.29-1.44-.37-.74-1.04-1.38-1.61-2.03-.49-.56-.91-1.12-.75-1.85.07-.31.21-.56.39-.77.43-.5,1.08-.81,1.68-1.17.73-.44,1.4-.94,1.7-1.74.28-.74.16-1.37-.14-1.95-.29-.56-.78-1.06-1.2-1.59-.34-.44-.65-.88-.61-1.43.02-.3.11-.55.25-.76.34-.51.92-.84,1.45-1.26.58-.46,1.12-1,1.4-1.82.08-.23-.05-.48-.28-.56-.23-.08-.48.05-.56.28-.26.79-.86,1.23-1.43,1.65-.51.38-1,.74-1.32,1.22-.22.33-.37.71-.4,1.19-.04.63.19,1.19.55,1.71.42.61,1.03,1.16,1.36,1.79.19.36.27.76.1,1.22-.23.61-.77.96-1.33,1.3-.68.41-1.4.78-1.89,1.34-.28.32-.49.69-.59,1.16-.12.54-.04,1.03.17,1.49.33.73,1.02,1.37,1.61,2.04.49.56.92,1.14.85,1.89-.07.76-.68,1.26-1.35,1.73-.76.53-1.61,1.02-2.19,1.64-.49.53-.8,1.15-.75,1.95-1.13-.2-2.24-.49-3.3-.87.06-.37.24-.68.49-.95.66-.72,1.71-1.24,2.5-1.89.69-.56,1.19-1.21,1.27-2.06.05-.53-.07-1.01-.28-1.45-.37-.75-1.05-1.4-1.61-2.05-.49-.57-.91-1.14-.75-1.88.07-.31.21-.57.39-.78.43-.5,1.08-.82,1.68-1.18.73-.44,1.39-.95,1.7-1.76.28-.75.16-1.38-.14-1.96-.3-.57-.79-1.08-1.2-1.62-.35-.44-.65-.9-.61-1.46.03-.44.21-.74.47-.98.38-.35.88-.6,1.34-.93.5-.36.95-.8,1.22-1.47.09-.23-.02-.48-.24-.57-.23-.09-.48.02-.57.25-.29.72-.88,1.07-1.42,1.41-.51.33-.99.65-1.3,1.12-.2.3-.34.66-.37,1.12-.05.78.31,1.44.8,2.06.38.49.84.96,1.12,1.48.19.37.28.77.1,1.24-.23.62-.77.98-1.33,1.32-.68.41-1.4.79-1.89,1.36-.27.32-.48.7-.58,1.17-.12.55-.04,1.04.17,1.5.33.74,1.02,1.39,1.61,2.07.49.57.92,1.16.85,1.91-.07.77-.68,1.28-1.35,1.76-.76.54-1.62,1.04-2.19,1.67-.33.36-.57.76-.68,1.22-.96-.39-1.88-.84-2.76-1.35.31-.31.69-.58,1.09-.85.58-.4,1.19-.78,1.66-1.23.51-.49.86-1.05.92-1.75.05-.53-.07-1.01-.28-1.45-.37-.75-1.04-1.39-1.61-2.05-.49-.57-.91-1.14-.75-1.88.07-.31.21-.57.39-.78.43-.5,1.08-.82,1.68-1.18.73-.44,1.39-.95,1.7-1.76.28-.75.16-1.38-.14-1.96-.3-.57-.79-1.08-1.2-1.61-.35-.44-.65-.9-.61-1.46.03-.4.15-.66.35-.86.3-.31.73-.5,1.13-.76.44-.29.85-.64,1.14-1.23.11-.22.02-.48-.2-.59-.22-.11-.48-.02-.59.2h0ZM181.47,111.5c.1.13.27.2.45.16,1.5.52,3.08.88,4.7,1.05,3.54.35,7.23-.04,10.49-.74,1.07-.23,2.1-.49,3.05-.77,2.3-.69,4.2-1.49,5.42-2.15-1.45,3.57-2.41,5.94-2.41,5.94-.05.13-.06.28-.03.41.35,1.33,1.88,2.89,4.29,4.4,2.08,1.31,4.82,2.62,7.91,3.81,1.18.45,2.42.89,3.68,1.3,0,.07-.02.15-.02.24-.01.16,0,.35,0,.57,0,.21,0,.44.01.69.01.32.04.66.07,1.02.07.97.13,2.06.21,3.07-.41-.85-.92-1.83-1.52-2.74-.54-.82-1.16-1.57-1.84-2.15-.71-.6-1.47-1.02-2.29-1.11-.63-.07-1.28.04-1.94.4-1.03-1.11-2.06-1.56-2.81-1.54-1.33.04-2.35,1.42-1.56,3.93.35,1.11.86,2.33,1.4,3.58.48,1.13.99,2.29,1.36,3.45.05.14.09.29.13.43-.04-.09-.08-.17-.13-.26-.69-1.37-1.45-2.61-2.19-3.43-.21-.23-.51-.69-.88-1.13-.38-.45-.84-.87-1.35-1.09-.53-.23-1.12-.28-1.75.02-.73.34-1.04,1.14-.98,2.22-.08-.04-.16-.08-.24-.12-.21-.1-.42-.18-.63-.26-1.68-.62-3.46-.93-5.24-.89-1.73.04-3.5.4-5.2,1.28-.4.21-.8.44-1.18.72-.24.18-.46.39-.69.61-.22.16-.27.46-.12.68.16.22.46.27.68.12.26-.13.52-.24.77-.36.38-.19.75-.38,1.12-.55,1.55-.71,3.1-1.1,4.65-1.15,1.63-.06,3.24.24,4.8.72.2.06.4.13.61.19.28.09.57.17.85.26.23,1.08.62,2.26.83,3.19.14.58.36,1.32.61,2.11.6,1.84,1.38,3.93,1.57,4.7.3,1.2.5,2.41.61,3.63.11,1.23.14,2.46.11,3.7-.06,2.14-.87,4.03-1.37,6.01-.11.43-.2.86-.28,1.29-1.32.44-2.79.83-4.37,1.19-1.43.32-2.94.62-4.54.85-1.76.25-3.61.42-5.52.49-2.68.11-5.47.03-8.29-.33-7.21-.91-14.6-3.57-20.66-9.15-2.2-2.02-3.34-4.81-3.91-7.83-.88-4.62-.43-9.8-.18-13.8.01-.27.03-.59.05-.96.05-.11.06-.24.02-.36.07-1.49.15-3.53.3-5.66.11-1.55.24-3.15.44-4.61,0-.04,0-.08,0-.12.11-.58.21-1.16.32-1.74.27-.95.57-1.86.87-2.73.66-1.88,1.4-3.56,2.21-5,.65-1.15,1.32-2.15,2.02-2.98,2.3-2.74,4.73-3.62,6.21-1.37,1.5,2.28,4.03,4.75,7.19,6.65,1.28.77,2.66,1.45,4.11,1.98h0ZM99.83,83.97c-1.18-.02-3.15-.37-4.79-1.49-1.25-.86-2.3-2.19-2.63-4.19,3.04-1.14,5.3-2.83,6.86-4.86,1.89-2.46,2.75-5.43,2.7-8.55-.03-1.76-.36-3.86-1.32-5.88,1.12.03,3,.07,5.47.1,2.55.03,5.7.05,9.25.06,1.95,0,4.02,0,6.17.01,19.76,0,46.31-.03,50.75-.04.01,2.2.06,9.69.16,16.32.09,6.01.23,11.31.23,11.31,0,0,0,.02,0,.03-4.2,1.84-7.85,4.68-10.53,8.67-1.42,2.13-2.3,4.3-2.88,6.53-.44,1.7-.7,3.44-.89,5.22-.18,1.69-.28,3.42-.43,5.2-.16,1.96-.57,3.91-.82,5.86-.11.87-.18,1.73-.18,2.61,0,.14.05.26.13.36v.03c-1.12-.64-2.2-1.04-3.21-1.18-1.67-.25-3.15.17-4.27,1.06-1.77,1.42-2.69,4.2-1.96,8.1.72,3.84,1.92,6.35,3.27,7.9,1.17,1.34,2.44,2.01,3.6,2.19.62.1,1.21.06,1.73-.07.08,1.07.21,2.13.4,3.16.56,3.01,1.66,5.79,3.66,7.94-1.41.62-2.79,1.27-4.15,1.96-1.46.75-2.88,1.56-4.3,2.38-4.23,2.45-8.32,5.11-12.48,7.75-2.96,1.89-5.96,3.66-8.85,5.58-1.17.78-2.32,1.57-3.44,2.43-.64.49-1.25.99-1.87,1.51l-24.64-1.1c-1.62-.12-2.86.18-3.63.84-.49.42-.82,1-.95,1.75-.3-.02-.76-.06-1.31-.08-.5-.02-1.08-.03-1.68-.04-.67-.01-1.36-.03-2.02-.04-.94,0-1.8,0-2.36,0-.04-2.21-.17-9.4-.31-14.87-.03-1.22-.06-2.36-.11-3.33-.1-2.01-.21-3.33-.21-3.33,0-.06-.02-.13-.04-.18,3.68.89,7.79,1.23,12.24.85,0,0,17.98,17.06,17.98,17.06.24.23.61.26.88.07.27-.19.37-.54.24-.85l-7.65-17.8c5.77-1.71,10.12-4.31,13.24-7.38,4.32-4.28,6.26-9.48,6.28-14.55,0-2.77-.92-7.13-3.98-11.28-1.96-2.66-4.79-5.23-8.81-7.23.83-.89,1.67-1.77,2.48-2.59,2.14-2.2,4.01-4.01,4.64-4.64,3.4.03,6.4-.27,9.04-.83,3.53-.76,6.41-1.99,8.72-3.53,6.2-4.12,8.39-10.48,8.23-16.32-.17-6.3-3.08-12.03-8.54-15.9-4.29-3.04-10.16-4.92-17.54-4.96-5.58-.03-9.98.9-13.44,2.38-5.22,2.24-8.31,5.74-10.08,9.2-.77,1.51-1.41,3.55-1.79,5.58-.33,1.81-.45,3.63-.28,5.08h0ZM100.1,57.98c-.7-1.17-1.64-2.3-2.88-3.3-.07-.06-.15-.11-.22-.17,1.23.02,2.85.04,4.78.06,2.88.03,6.45.03,10.46.04,2.21,0,4.55,0,6.98,0,22.47-.04,52.7-.16,57.49-.18,0,2.39,0,10.98.05,18.57.04,5.65.12,10.75.15,12.32-1.14.31-2.26.68-3.34,1.11.02-1.25.07-5.85.07-10.97.01-7.87-.07-16.96-.07-16.96,0-.35-.29-.64-.65-.64,0,0-29.76-.05-51.39-.04-2.15,0-4.22,0-6.17.01-3.55.01-6.7.03-9.25.06-2.93.04-5.04.09-6.01.11h0ZM95.4,53.46c-2.18-1.24-5.06-2.14-8.84-2.45-4.77-.39-9.35.49-12.79,2.68-3.65,2.32-6.04,6.11-6.03,11.44.01,5.41,2.72,9.36,6.66,11.78,2.55,1.57,5.61,2.49,8.77,2.77-.03.53-.09,1.48-.14,2.73-.03.92-.05,2.01-.07,3.21-.07,4.34-.11,10.14-.15,14.97-.01,1.17-.03,2.28-.03,3.3,0,.79,0,1.53.02,2.2,0,.7,0,1.31.03,1.83.02.56.05,1,.07,1.32-1.39.58-2.67,1.24-3.87,1.97-6.99,4.28-10.65,10.95-10.72,18.36-.06,7.27,3.94,14.12,10.89,18.43,1.29.8,2.69,1.52,4.18,2.13,0,.02,0,.04,0,.06,0,0-.1,2.04-.16,5.01-.02,1.02-.03,2.15-.03,3.34-.05,8.2-.04,19.48-.04,19.48,0,.38.31.68.68.68,0,0,2.68.02,5.64,0,.8,0,1.62-.01,2.42-.03,1.18-.02,2.31-.03,3.22-.06.65-.02,1.19-.05,1.56-.07l5.29,28.21c-.95-.08-3.67-.32-6.39-.53-3.15-.25-6.31-.46-6.71-.48-.24-.05-1.34-.22-2.62.1-.77.19-1.62.56-2.39,1.24-1.15,1.02-2.92,2.63-5.02,4.57-6.22,5.74-15.35,14.31-19.86,18.44-.66.6-1.08,1.74-.69,2.81.33.9,1.25,1.81,3.3,2.12,1.55.23,3.83.51,6.36.8,5.32.61,11.75,1.27,14.82,1.62,1.03.12,1.95-.06,2.71-.34,1.43-.53,2.3-1.45,2.3-1.45,0,0,0,0,0,0,0,0,4.2-4.51,8.39-9.04,2.14-2.31,4.29-4.62,5.86-6.34.9-.98,1.61-1.76,2.04-2.24l3.01,16.05c.06.31.32.54.64.56,0,0,19.82.89,41.77,1.83,5.93.26,12.01.51,17.9.76,7.12.3,13.96.59,19.89.83,11.69.46,19.9.75,19.9.75v-.05c.14,0,.28-.05.38-.14.05-.05.09-.12.11-.18.22-.16.44-.32.65-.49.6-.5,1.16-1.03,1.73-1.56,1.91-1.76,3.81-3.55,5.65-5.39.68-.68,1.37-1.35,2-2.08.13-.15.25-.3.37-.45.26,1.28.46,2.2.54,2.58.37,1.71,1.55,3.08,3.27,4.09,2.79,1.64,7.06,2.35,11.3,2.18,4.26-.17,8.47-1.21,11.11-2.98,1.73-1.16,2.79-2.63,2.9-4.35.16-2.62.39-8.2.63-13.7.04-.92.08-1.84.12-2.74.28.14.84.4,1.62.75.75.33,1.7.72,2.79,1.16,5.08,2.03,13.26,5.15,18.83,7.16.98.36,1.89.68,2.68.94.59.19,1.12.36,1.57.49-1.55.7-3.02,1.47-4.39,2.29-1.08.65-2.1,1.34-3.04,2.05-4.2,3.15-6.96,6.75-7.4,9.78-.29,2,1.21,3.79,4.11,5.16,5.22,2.48,15.05,3.82,24.87,3.89,9.89.07,19.76-1.16,24.91-3.74,2.77-1.39,4.22-3.22,3.95-5.33-.1-.82-.82-2.51-2.36-4.53-1.74-2.29-4.52-5.06-8.57-7.49-.63-.38-1.29-.75-1.99-1.12.19-.04.4-.09.62-.14.24-.05.5-.11.77-.18,1.36-.31,3.15-.7,5.19-1.15,6.03-1.32,14.32-3.11,20.85-4.39,2.08-.42,3.09-2.23,3.19-4.16.06-1.11-.19-2.24-.64-3.1-.31-.59-.71-1.06-1.18-1.35-.1-.26-.36-.44-.64-.42-.03,0-.14-.02-.24-.03-.34-.06-.87-.19-1.56-.37-.66-.17-1.46-.39-2.38-.64-1.31-.35-2.87-.76-4.6-1.23.64-.69.97-1.64,1.01-2.63.07-1.53-.54-3.08-1.47-3.73-.08-.3-.37-.51-.69-.49-.03,0-.18-.03-.3-.06-.27-.07-.65-.18-1.12-.33-2.58-.82-7.87-2.82-14.7-5.04-2.21-.72-4.6-1.43-7.09-2.17-.23-.07-.48.05-.56.28-.08.23.05.48.28.56,2.19.77,4.29,1.54,6.27,2.24,1.54.55,3.01,1.06,4.4,1.54,4.31,1.52,7.79,2.76,10.01,3.51l-13.23,2.58c-.16.02-1.74.25-3.77.55-1.77.27-3.87.59-5.66.9-2.26.39-4.03.73-4.03.73-.06,0-.12.03-.18.06.02-.07.05-.15.07-.22.45-1.04,10.25-23.97,18.72-43.91,2.74-6.46,5.35-12.61,7.45-17.6,2.78-6.63,4.68-11.21,4.91-11.74l-.04-.02c2.03-4.26-.04-7.64-2.93-8.83-1.72-.71-3.76-.65-5.44.46-.04-.05-.1-.1-.17-.13,0,0-7.11-3.04-16.51-6.97-12.75-5.32-29.71-12.27-38.65-15.98-2.64-1.1-4.58-1.9-5.51-2.3-.26-.11-.44-.19-.52-.23-.07-.04-.15-.07-.24-.09-.12-.02-.33-.03-.54.15-.03.02-.07.06-.12.14,0,0-.03.07-.05.16l-.02-.02s0,.02-.02.04c-.04.1-.13.31-.25.6l-.2.48c-.14-.09-.36-.23-.63-.38-.36-.2-.82-.42-1.3-.65-.99-.47-2.09-.95-2.74-1.24.25-3.1.47-6.04.62-8.59.16-2.72.25-4.98.26-6.5.17-.16.28-.34.35-.53.12-.35.1-.74-.11-1.16-.22-.41-.66-.89-1.33-1.35-.83-.57-2.04-1.15-3.52-1.69l-.02.04c-2.12-.9-4.27-1.71-6.59-2.38-.94-.27-1.91-.52-2.91-.75-2.96-.67-6.2-1.17-9.89-1.49-3.09-.27-4.92.01-5.75.51-.39.24-.61.53-.72.84-.1.05-.18.13-.22.23,0,0-.26.61-.71,1.68-.44-.25-.73-.73-.83-1.25-.09-.5.03-1.04.45-1.42,1.92-1.76,2.17-3.8,1.57-5.11-.37-.8-1.07-1.36-1.97-1.52-.9-.16-2.03.1-3.25,1.06-.66.53-1.36.56-1.75.18-.38-.37-.35-1.03.17-1.77,1.56-2.25,1.54-3.97.96-5.05-1.03-1.91-3.91-2.08-5.07-.26-.36.57-.78.98-1.22,1.19-.28.14-.57.18-.83.09-.26-.09-.47-.31-.66-.62-.24-.42-.41-1-.49-1.74-.28-2.53-2.59-3.57-4.25-2.78-1.16.56-2.15,2.08-1.63,4.89.17.91.14,1.6-.03,2.11-.14.41-.38.67-.67.78-.81.31-1.87-.39-1.75-1.51.24-2.28-1.52-3.95-3.25-4.03-1.49-.07-3.1.95-3.28,3.93-.09,1.43-.61,2.32-1.37,2.43-.75.12-1.52-.57-2.01-1.92-.46-1.25-1.24-1.86-2.06-2.06-.94-.23-1.99.09-2.8.75-.93.75-1.53,1.93-1.38,3.1.09.7.45,1.41,1.19,2.02.52.43.83.84.92,1.21.06.24,0,.45-.14.59-.44.44-1.36.46-2.31-.02-.84-.42-1.58-.48-2.17-.33-.36.09-.68.26-.94.49.04-8.2.03-16.6.03-16.6,0-.17-.07-.34-.19-.46-.12-.12-.29-.19-.46-.19,0,0-33.67.03-58.13.1-2.43,0-4.77.01-6.98.03-4.01.03-7.58.05-10.46.09-2.93.04-5.14.09-6.37.12h0ZM84.13,79.74c1.03.05,2.07.02,3.1-.07.01.05.03.1.04.15-.03.47-.05,1.04-.08,1.7-.04.9-.06,1.96-.08,3.12-.08,4.23-.12,9.88-.16,14.58-.01,1.14-.03,2.22-.03,3.21,0,.77,0,1.49.02,2.14,0,.68,0,1.28.03,1.79.02.66.06,1.15.08,1.45-1.05.29-2.07.62-3.03.98.02-.25.04-.54.05-.87.03-.52.04-1.14.06-1.83.02-.67.04-1.4.05-2.2.01-1.02.01-2.13.02-3.3.03-4.83.07-10.63.06-14.97,0-1.2,0-2.28-.03-3.21-.03-1.21-.07-2.14-.09-2.68h0ZM88.37,82.44c.65,1.08,1.48,1.99,2.46,2.74,2.48,1.91,5.92,2.84,9.69,2.99.46,1.82,1.29,3.75,2.63,5.61,1.19,1.65,2.8,3.21,4.82,4.61,2.79,1.93,6.43,3.52,11.06,4.44l-5.14,5.67c-2.03-.66-4.3-1.2-6.81-1.57-2.13-.31-4.45-.51-6.96-.57-4.46-.1-8.48.33-12.03,1.19.02-.3.05-.69.08-1.17.03-.51.04-1.11.06-1.78.02-.65.04-1.37.05-2.14.01-.99.02-2.08.02-3.21.03-4.7.08-10.35.07-14.58,0-.8,0-1.54-.01-2.22h0ZM100.68,87.09c-2.9-.15-5.59-.77-7.73-1.98-2.32-1.32-3.99-3.35-4.56-6.29-.02-.11-.07-.21-.14-.3v-.12c0-.24-.2-.44-.45-.45-.22,0-.4.15-.44.36-4.3.42-8.78-.44-12.23-2.58-3.54-2.19-5.98-5.73-5.99-10.61,0-4.78,2.11-8.18,5.38-10.26,3.2-2.04,7.48-2.83,11.92-2.47,3.08.25,5.52.91,7.44,1.83.09.14.24.23.41.23h.04c.75.4,1.42.84,2.01,1.31,3.33,2.66,4.18,6.36,4.23,9.14.05,2.8-.72,5.47-2.41,7.68-1.5,1.96-3.72,3.55-6.74,4.58-.3.1-.49.4-.46.72.27,2.79,1.64,4.59,3.3,5.72,2.22,1.52,4.96,1.81,6.21,1.7.1.03.22.03.33,0,.37-.08.6-.45.52-.82-.32-1.41-.22-3.39.15-5.37.35-1.9.94-3.8,1.66-5.21,1.64-3.22,4.54-6.48,9.4-8.56,3.32-1.42,7.54-2.3,12.88-2.27,7.03.04,12.64,1.81,16.73,4.71,5.08,3.6,7.79,8.94,7.95,14.8.15,5.41-1.87,11.3-7.6,15.13-2.19,1.46-4.91,2.61-8.25,3.35-2.61.58-5.6.91-9,.9-.17,0-.34.07-.46.19-.25.27-1.91,1.92-3.97,4.08-1.22,1.28-2.59,2.73-3.89,4.19-.2.22-.18.56.04.76.17.16.43.18.62.07,3.98,1.97,6.76,4.5,8.65,7.12,2.82,3.9,3.68,7.98,3.65,10.57-.04,4.74-1.89,9.59-5.95,13.58-3.11,3.06-7.52,5.62-13.4,7.24-.19.05-.35.19-.44.37-.09.18-.09.39-.01.57l6.61,15.42-15.75-14.95c-.15-.14-.34-.21-.55-.19-8.2.76-15.19-.97-20.43-4.21-6.52-4.04-10.3-10.43-10.24-17.23.06-6.94,3.5-13.18,10.05-17.19,5.02-3.07,11.84-4.84,20.34-4.65,2.45.06,4.71.25,6.79.55,2.38.35,4.52.85,6.45,1.47.04.08.09.15.16.21.28.25.71.23.97-.05l6.45-7.08c.17-.19.23-.45.14-.69-.08-.24-.29-.42-.54-.46-4.99-.83-8.83-2.45-11.73-4.44-1.89-1.3-3.36-2.78-4.51-4.28-1.4-1.83-2.32-3.73-2.8-5.52-.07-.29-.36-.47-.65-.4-.05.01-.09.03-.14.05h0ZM84.29,150.47c.96.36,1.97.68,3,.96-.11.08-.18.22-.18.36,0,0-.07,1.32-.09,3.33-.01.97,0,2.11.01,3.33.06,6.54.24,15.55.24,15.55,0,.37.31.67.68.67,0,0,1.39.01,3.03,0,.66,0,1.35-.02,2.02-.04.6-.01,1.18-.02,1.68-.04.53-.03.98-.06,1.27-.08.02.29.06.6.14.92l.38,2.04c-.36-.02-.82-.04-1.37-.06-.91-.03-2.04-.04-3.22-.06-.79-.01-1.62-.02-2.42-.03-2.06-.01-3.98,0-4.96,0,0-2.57,0-11.8-.04-18.8,0-1.19-.01-2.32-.03-3.34-.05-2.32-.12-4.06-.15-4.72h0ZM232.72,153.53c-.25.17-.51.35-.77.55-.14.11-.27.23-.41.35-.96.88-1.9,1.97-2.78,3.1-.88,1.13-1.7,2.31-2.31,3.47-.14.27-.27.53-.38.79-.79-.61-1.55-1.21-2.28-1.79-.33-.26-.65-.51-.97-.76-.37-.28-.74-.55-1.09-.81.06-.08.1-.18.1-.29.03-1.6.14-3.21.23-4.81.05-1.06.11-2.12.15-3.18.85.35,1.69.68,2.51.95,2.67.89,5.13,1.41,7.14,2.11.29.1.58.2.85.31h0ZM227.07,162.57l.02-.04c.18-.28.35-.57.53-.87.64-1.07,1.38-2.23,2.2-3.32.83-1.1,1.73-2.13,2.58-3.04.12-.13.23-.25.35-.38.28-.31.53-.62.79-.9.04-.03.07-.07.1-.12.78.36,1.45.77,2,1.28.95.87,1.4,1.19,2.15,1.88.41.38.9.87,1.63,1.61.44.45.98.99,1.62,1.66.13.14.27.28.42.43.2.2.42.39.64.6-.37,1.72-.75,3.54-1.12,5.34-.41,1.98-.81,3.94-1.17,5.75-.07-.07-.15-.13-.23-.2-.8-.68-1.76-1.42-2.81-2.24-2.86-2.22-6.41-4.93-9.7-7.47h0ZM100.28,210.1s-.74-.13-1.98-.27c-.26-.03-.55-.05-.85-.08-2.81-.22-7.28-.59-11.37-.88-.7-.05-1.39-.1-2.06-.13.27-.24.51-.46.73-.66.58-.52,1.22-.81,1.81-.96,1.13-.29,2.08-.1,2.08-.1.03,0,.06.01.09.01,0,0,3.38.22,6.76.4,2.75.15,5.5.27,6.43.31h0l1.6,9.2c-.36.38-1.22,1.27-2.36,2.48-1.6,1.69-3.75,4-5.91,6.3-4.13,4.41-8.24,8.84-8.41,9.01-.04.04-.73.72-1.82,1.13-.59.22-1.31.36-2.11.26-3.07-.36-9.5-1.03-14.82-1.65-2.51-.29-4.77-.57-6.32-.81-1.07-.16-1.72-.49-2.06-.94-.44-.58-.22-1.32.17-1.67.82-.75,1.8-1.65,2.88-2.66.26.05.64.11,1.12.18.44.07.96.12,1.55.19.56.07,1.19.14,1.86.21.86.09,1.81.17,2.8.26,4.1.37,9.02.84,12.7,1.14,1.02.08,1.94.16,2.73.2,1.68.1,2.74.11,2.74.11.24.02.46-.16.48-.4.02-.24-.16-.46-.4-.48,0,0-1.04-.18-2.71-.4-.78-.1-1.7-.2-2.72-.3-3.68-.39-8.6-.84-12.7-1.23-.99-.09-1.93-.19-2.8-.26-.67-.06-1.3-.1-1.87-.14-.59-.04-1.12-.08-1.56-.1h-.11c4.78-4.43,11.17-10.39,15.87-14.73,1.14-1.05,2.18-2.01,3.08-2.83.23.05.46.1.7.14.55.09,1.12.15,1.7.21,1.39.14,2.85.24,4.27.34,2.79.2,5.49.38,7.48.47.47.02.9.04,1.29.04,1.21,0,1.93-.03,1.93-.03.24.01.45-.17.47-.42.01-.24-.17-.45-.42-.47h0ZM247.33,207.35c-.24,2.27-.47,5.03-.65,7.87-.37,5.8-.58,11.89-.77,14.66-.09,1.34-.99,2.45-2.34,3.35-2.48,1.65-6.44,2.58-10.43,2.73-3.32.12-6.67-.3-9.21-1.35-2.07-.85-3.6-2.1-3.98-3.88-.21-.96-1.11-5.47-2.12-10.38-.48-2.33-.99-4.75-1.45-6.92-.22-1.06-.43-2.06-.63-2.96-.19-.87-.37-1.66-.52-2.31,3.05,1.7,11.16,2.76,15.07,2.48.55,0,1.1-.01,1.65-.03,3.9-.13,7.81-.65,11.32-1.59,1.62-.44,2.97-.97,3.88-1.55.06-.04.13-.08.19-.13h0ZM213.91,206.99l.32,1.69-10.25.06c-.21-1.67-.36-2.65-.57-4.29l-.19-2.02,13.72-.22.5,1.09c-1.16.32-2.12.74-2.76,1.2-.68.5-1.01,1.09-1.01,1.66,0,.26.08.54.24.82h0ZM214.41,209.83c.08.43.16.89.25,1.37.4,2.16.92,4.8,1.44,7.44.61,3.09,1.24,6.18,1.72,8.53-.3.26-.6.53-.89.8-.19.17-.36.35-.54.53-2.41,2.38-4.96,4.61-7.38,6.98-.51.5-1.03,1-1.51,1.54l-3.33-27.07,10.24-.11h0ZM248,212.49c.03-.71.06-1.41.1-2.09.08-1.49.16-2.88.26-4.08.66.29,1.33.6,2.01.88,1.13.47,2.29.92,3.46,1.37,2.87,1.1,5.83,2.17,8.71,3.22,5.78,2.11,11.26,4.08,15.3,5.49.97.34,1.85.64,2.64.9,1.61.53,2.81.9,3.46,1.1.04.69.08,1.34.11,1.91-2.49.53-4.91,1.29-7.19,2.22-.5-.18-1.28-.5-2.28-.89-1.16-.45-2.61-1-4.22-1.62-5.22-2-12.16-4.73-16.9-6.52-1.51-.57-2.79-1.04-3.72-1.36-1.02-.35-1.62-.51-1.62-.51-.03-.01-.07-.02-.1-.03h0ZM217.83,204.15c.8,1.74,1.48,3.21,1.93,4.18-2.16-.45-3.55-.96-4.32-1.5-.35-.24-.57-.45-.58-.69-.01-.27.19-.51.5-.77.56-.46,1.42-.88,2.47-1.22h0ZM220.96,208.57c-.62-1.4-2.15-4.88-3.85-8.8-1.37-3.16-2.85-6.6-4.03-9.49-6.01-14.32,4.55,4.68,6.12,7.4,1.77,3.06,1.72,3.14.71-.42-1.45-5.09-2.84-10.22-4.3-15.32l2.54-.57,7.2,27.76c-1.52-.13-2.99-.31-4.39-.57h0ZM230.53,209.31c-.09-.55-.22-1.48-.38-2.7-.99-7.47-3.09-25.38-3.51-29.01l1.15-.16c.36-.05.61-.37.57-.73l-.37-3.55,1.42-.05.38,3.52c.03.32.3.57.63.59l1.18.04c.34,3.33,2.05,20.32,2.74,27.38.52,5.24,1.28,5.34,1.81-.36.52-5.5,1.71-16.45,2.2-21.57.08-.88.14-1.59.18-2.07.95.15,2.64.34,3.53.44l-2.05,27.3c-2.6.51-5.35.8-8.1.9-.46.02-.92.03-1.38.03h0ZM240.92,208.19l2.4-27.6c.03-.33-.21-.61-.54-.65,0,0-1.7-.19-3.06-.37.07-.28.16-.6.24-.95.23-.99.49-2.26.77-3.69,1-4.95,2.35-11.92,3.39-16.9.09-.44.18-.86.26-1.27.16-.87.3-1.65.42-2.33h0c.3.14.71.26,1.17.38,1.54.4,3.72.78,5.31,1.13.13.03.26.06.39.08.19.03.36.05.52.06-.36,1.44-.78,3.13-1.22,5.03-.17.76-.34,1.55-.52,2.36-1.14,5.36-2.42,11.91-3.67,18.45-1.25,6.56-2.49,13.12-3.4,18.5-.29,1.73-.56,3.33-.76,4.78-.14.97-.24,1.86-.34,2.67-.45.11-.91.22-1.37.32h0ZM238.65,179.42l-.16-.03c-.08-.01-.17-.03-.23-.05h-.03c-.18-.11-.37-.12-.57-.02-.2.1-.27.25-.31.37-.03.11-.04.22-.01.33v.09c-.02.42-.1,1.29-.22,2.47-.41,4.18-1.28,12.22-1.87,18.09-.9-9.15-2.4-24.11-2.4-24.11-.03-.33-.3-.58-.63-.59l-1.19-.05-.39-3.56c-.04-.34-.33-.6-.68-.59l-2.74.09c-.18,0-.36.09-.48.23-.12.14-.18.32-.16.5l.38,3.62-1.16.16c-.36.05-.61.37-.57.73,0,0,.21,1.83.54,4.63-.64-.62-1.36-1.28-2.13-2-2.44-2.29-5.37-4.99-7.97-7.52-1.32-1.28-2.56-2.51-3.64-3.58-.56-.56-1.08-1.08-1.55-1.54-.54-.53-1-.97-1.36-1.33-.75-.96-1.3-1.87-1.73-2.71-.57-1.12-.88-2.15-.99-3.12-.21-1.77.2-3.35.67-4.92.51-1.72,1.08-3.44,1.13-5.32.04-1.3,0-2.59-.12-3.87-.12-1.29-.34-2.57-.66-3.84-.2-.78-.99-2.92-1.61-4.79-.25-.75-.46-1.45-.59-2-.25-1.05-.73-2.42-.93-3.59-.07-.39-.1-.76-.07-1.07.02-.22.05-.42.23-.5.34-.16.65-.05.92.13.7.48,1.22,1.41,1.55,1.76.68.74,1.37,1.89,2,3.13.95,1.85,1.79,3.92,2.31,5.3.43,1.08.83,2.15,1.19,3.23.36,1.08.67,2.18.95,3.3.05.24.29.39.53.34.24-.05.39-.29.34-.53-.22-1.17-.5-2.3-.81-3.42-.31-1.12-.67-2.23-1.06-3.35-.23-.63-.53-1.41-.86-2.24.11-.09.18-.22.18-.38.04-.78-.02-1.58-.17-2.38-.06-.33-.15-.66-.24-.98-.34-1.22-.81-2.45-1.3-3.63-.5-1.22-1.03-2.38-1.36-3.46-.24-.75-.29-1.35-.15-1.77.08-.24.23-.39.45-.4.28,0,.61.13.97.37.44.3.91.78,1.39,1.42l1.26,1.71c.24.36.47.74.69,1.12.33.59.64,1.19.93,1.78.8,1.62,1.35,3.33,1.74,5.08.3,1.33.49,2.68.65,4.03.16,1.37.3,2.74.4,4.1,0,.24.21.44.46.43.24,0,.44-.21.43-.46,0-1.39,0-2.79-.09-4.19-.07-.94-.18-1.87-.33-2.79-.38-2.34-1.02-4.63-2.07-6.78-.3-.61-.62-1.24-.96-1.85-.23-.41-.48-.82-.73-1.21l-1.26-1.72c.37-.1.73-.11,1.07-.05.58.11,1.11.43,1.6.88.57.52,1.09,1.2,1.55,1.92.77,1.19,1.4,2.48,1.83,3.42,1.54,3.3,2.18,6.71,2.43,10.16.27,3.7.02,7.46-.02,11.22-.02,1.52.02,3.04.09,4.55-.14-.11-.28-.21-.41-.31-.19-.16-.46-.14-.62.05-.16.19-.14.47.05.62.68.64,1.43,1.36,2.27,2.1.52.46,1.08.91,1.66,1.38,1.24,1.02,2.58,2.07,3.94,3.14,2.96,2.33,6,4.72,8.53,6.6.96.71,1.84,1.36,2.62,1.9.21.14.41.27.6.39-.15.8-.3,1.56-.42,2.27-.16.9-.3,1.71-.39,2.4-.05.38-.08.72-.11,1.02h0ZM220.01,76.48c.29.44.79.92,1.5,1.4,1.05.71,2.56,1.44,4.44,2.09,3.27,1.13,5.83,1.86,8.3,2.39,2.68.57,5.26.92,8.53,1.29,2.08.23,3.67.27,4.84.18.63-.05,1.14-.14,1.55-.27-.06,1.18-.17,2.71-.31,4.49-.15,2-.34,4.31-.55,6.79-.09,1.01-.18,2.05-.27,3.11-.13.12-.21.29-.22.47l-.14,3.43c-.14,1.46-.28,2.94-.42,4.39-.66,6.84-1.34,13.37-1.85,17.07-.17,1.26-.32,2.18-.44,2.66-3.12,1-7.19,1.13-11.55.68-5.89-.6-12.3-2.26-17.62-4.3-3.01-1.15-5.67-2.42-7.69-3.68-1.92-1.2-3.26-2.36-3.66-3.43.7-1.73,5.47-13.41,9.57-23.67,2.7-6.76,5.11-12.9,5.97-15.11h0ZM245.26,79.18c1.14.5,2.09,1.03,2.81,1.52.41.28.75.55.99.8.06.06.11.13.16.19,0,.14,0,.3,0,.47h0c-.34.19-.9.3-1.69.35-1.1.07-2.61.01-4.58-.22-3.22-.36-5.76-.7-8.4-1.26-2.43-.52-4.94-1.22-8.15-2.33-1.75-.6-3.17-1.27-4.14-1.92-.61-.41-1.04-.79-1.21-1.14-.03-.06-.06-.11-.04-.16.03-.07.1-.11.2-.17.12-.07.26-.12.43-.17.88-.26,2.34-.33,4.48-.15,3.63.3,6.81.78,9.73,1.41.98.21,1.94.44,2.87.68,2.3.59,4.45,1.27,6.57,2.06l-.02.04h0ZM156.35,173.37l-29.43-1.32c.29-.2.59-.39.88-.59,1.15-.77,2.31-1.54,3.47-2.29,2.92-1.88,5.87-3.7,8.83-5.58,3.45-2.21,6.85-4.41,10.32-6.53,2.08-1.27,4.18-2.48,6.31-3.68,1.26-.71,2.52-1.44,3.81-2.12-.33.41-.64.87-.93,1.36-.33.58-.62,1.21-.88,1.87-.56,1.4-.99,2.96-1.33,4.57-.72,3.39-1.08,7.03-1.16,10.01-.03,1.11-.04,2.14,0,3.01.02.48.07.9.11,1.29h0ZM206.71,237.78c-2-.1-9.41-.49-19.35-.97-5.94-.28-12.77-.59-19.89-.92-5.89-.27-11.97-.55-17.9-.81-19.82-.88-37.92-1.66-41.23-1.81l-10.92-58.1s0-.01,0-.02c-.25-1.15-.14-1.96.41-2.43.56-.48,1.48-.61,2.67-.52,0,0,.01,0,.02,0l93.18,4.11s.01,0,.02,0c2.07.04,3.42.42,4.27,1.34.85.93,1.18,2.37,1.31,4.4,0,.01,0,.03,0,.04,0,0,1.37,10.55,2.97,22.51,1.87,14.02,4.02,29.98,4.46,33.18h0ZM283.67,214.21c-1.11-.44-2.4-.96-3.83-1.52-.61-.24-1.25-.47-1.9-.71-7.7-2.85-18.25-6.79-25.42-9.4-2.26-.82-4.19-1.52-5.59-1.99-.97-.33-1.68-.55-2.08-.67l.16-.86c.19-1.06.4-2.16.6-3.29.72.32,1.47.66,2.25.98,1.11.46,2.29.91,3.5,1.37,2.8,1.06,5.82,2.14,8.82,3.23,5.68,2.05,11.32,4.06,15.49,5.5.97.34,1.87.64,2.67.9,2.5.81,4.04,1.26,4.04,1.26.19.07.39,0,.5-.15.25.32.53.61.83.87-.07.09-.11.2-.1.33,0,0-.03.85,0,2.13.01.59.03,1.28.06,2.01h0ZM244.66,200.97c.4.17,1.02.44,1.84.78.95.39,2.15.85,3.55,1.38,3.7,1.4,8.74,3.24,13.91,5.13,4.85,1.77,9.82,3.59,13.94,5.04.62.22,1.22.43,1.8.62,1.5.5,2.86.93,4,1.29v.2c.05.94.1,1.92.15,2.86-.69-.28-1.76-.71-3.14-1.24-.53-.21-1.12-.42-1.74-.65-5.65-2.07-14.61-5.38-23.23-8.53-1.72-.63-3.42-1.26-5.09-1.83-.68-.23-1.36-.44-2.03-.65,0-.54-.26-1.1-.89-1.64-.28-.24-.65-.5-1.11-.73-.57-.29-1.3-.56-2.18-.83l.22-1.19h0ZM277.17,224.46s.09.01.11.01c.3,0,.44-.13.5-.27,2.01-.85,4.13-1.56,6.32-2.09.05.77.08,1.25.08,1.25,0,.18.09.35.23.47.13.12.31.18.49.17l6.85-.42c.36-.02.63-.33.62-.69v-.17s-.03-.37-.05-.93c2.74.51,5.21,1.23,7.45,2.05,2.71.99,5.06,2.14,7.08,3.38,3.85,2.36,6.5,5.01,8.16,7.2,1.32,1.75,2.01,3.17,2.1,3.88.21,1.62-1.08,2.87-3.2,3.94-5.02,2.52-14.65,3.68-24.28,3.63-9.6-.05-19.22-1.31-24.33-3.72-1.25-.59-2.22-1.24-2.81-1.98-.45-.56-.67-1.17-.58-1.83.4-2.8,3.01-6.05,6.87-8.98.91-.69,1.89-1.36,2.93-2.01,1.69-1.05,3.52-2.03,5.47-2.88h0ZM291.99,215.26s.1-.03.16-.04c.36-.09,1.03-.21,1.95-.4.26-.05.54-.12.84-.18.96-.2,2.11-.43,3.39-.7.71-.15,1.47-.31,2.26-.48,7.12-1.52,16.88-3.55,22.62-4.66.29-.06.56-.15.8-.27,2.65.87,4.92,1.61,6.58,2.1l.17.05c-6.27,1.2-21.35,4.11-30.91,6.04-1.96.4-3.69.75-5.06,1.06-1.16.26-2.07.47-2.64.61-.03-.53-.06-1.09-.09-1.64-.03-.49-.05-.99-.08-1.47h.02ZM324.01,202.28c.12.11.22.25.31.41.38.63.53,1.55.44,2.43-.11,1.11-.61,2.2-1.82,2.42-6.46,1.23-18.04,3.51-25.17,5.13-1.56.35-2.91.68-3.94.96-.72.2-1.29.38-1.68.51-.1.03-.18.06-.26.09v-.05c-.16-2.05-.33-3.66-.33-3.66,0-.13-.07-.24-.16-.32,1.02-.71,1.9-1.79,2.48-3.25.08.21.3.35.53.31,0,0,1.79-.18,4.07-.46,1.8-.23,3.91-.52,5.68-.77,2.14-.3,3.78-.56,3.78-.56.01,0,.02,0,.03,0l15.97-3.16s.04,0,.06-.02h0ZM292.19,214.93s-.02.09-.04.14c.02-.05.04-.09.04-.14h0ZM333.94,211.35c.28.22.5.56.68.96.32.73.44,1.67.35,2.57-.12,1.37-.75,2.71-2.23,2.98-5,.95-11.02,2.16-16.27,3.29-2.57.55-4.96,1.08-6.95,1.56-1.45.35-2.68.66-3.63.94-.67.2-1.19.38-1.55.52-.08.03-.16.06-.23.09-1.23-.58-2.54-1.11-3.95-1.59-2.35-.8-4.97-1.44-7.86-1.88-.02,0-.03,0-.05,0-.02-.41-.04-.87-.07-1.36.57-.09,1.55-.24,2.83-.46,1.38-.24,3.11-.56,5.08-.93,12.34-2.35,33.78-6.67,33.78-6.67.02,0,.04,0,.06-.02h0ZM246.12,192.98c1.34-.14,2.81-.27,4.35-.45.65-.08,1.32-.16,1.99-.25,11.04-1.45,24.89-3.42,26.42-3.64.64.17,3.41.91,5.51,1.41,1.3.31,2.34.51,2.44.53-2.43,5.57-4.03,9.24-4.12,9.44-1.6,3.37-1.42,6.11-.36,8.05-.61-.25-2.04-.82-4.04-1.58-.87-.33-1.86-.69-2.94-1.08-6.35-2.3-15.7-5.71-23.53-8.54-1.22-.44-2.4-.87-3.54-1.25-.82-.28-1.62-.52-2.38-.77-.04-.02-.08-.03-.13-.03l.33-1.84h0ZM287.21,189.68s-.08-.04-.13-.05c0,0-1.04-.36-2.38-.77-2.35-.71-5.61-1.59-5.61-1.59-.09-.02-.18-.03-.27-.02,0,0-5.8.81-13,1.84,0-.03-.02-.06-.04-.09-.22-.49-.44-1-.7-1.51-.36-.7-.78-1.42-1.24-2.17-.99-1.61-2.18-3.33-3.51-5.14-1.95-2.68-4.21-5.56-6.77-8.49-.4-.46-.82-.93-1.24-1.38-.52-.55-1.06-1.1-1.62-1.64l.41-2.1c.31-1.55.6-3.03.87-4.42.46-2.44.85-4.59,1.19-6.32,0-.03.01-.07.01-.1h0s0-.01,0-.01h0s0-.01,0-.01h0s0-.01,0-.01h0s0-.01,0-.01h0s0-.01,0-.01h0s0-.01,0-.01h0s0-.01,0-.01h0s0-.01,0-.01h0s0-.01,0-.01h0s0-.01,0-.01h0s0-.01,0-.01h0s0-.01,0-.01h0s0-.02,0-.02h0s0,0,0,0h0s0-.01,0-.01h0s0-.01,0-.01h0s0,0,0,0h0s0,0,0,0h0s0,0,0,0h0s0,0,0,0h0s0,0,0,0h0s0,0,0,0h0s0,0,0,0v-.02s-.01,0-.01,0c-.03-.04-.08-.08-.12-.11h0s0,0,0,0c0,0-.02-.01-.03-.02h0s0,0,0,0c-.01,0-.02,0-.03-.01-.26-.14-.58-.31-.97-.46-.2-.08-.43-.14-.66-.2-1.65-.45-3.83-.93-5.3-1.23-.29-.06-.55-.11-.78-.14-.21-.03-.37-.01-.5-.03-.25-.1-.53.02-.64.27-.03.08-.04.17-.03.25-.22.71-.48,1.57-.74,2.56-.1.38-.2.77-.29,1.18-.19.79-.38,1.64-.58,2.52l-.06-.07c-.92-1.12-1.66-1.9-2.23-2.51-1.78-1.88-2.13-1.95-3.55-3.24-1.06-.96-2.51-1.65-4.27-2.24-2.04-.68-4.48-1.29-7.22-2.02-.91-.24-1.86-.47-2.82-.76.05-1.55.08-3.09.05-4.63.44-.1.87-.22,1.28-.39.74-.3,1.41-.71,2.02-1.17,2.52-1.92,3.97-4.92,4.29-7.74.38-3.43-.92-6.66-3.97-7.74-.37-.13-.76-.23-1.18-.28-.61-.08-1.28-.07-2,.03,0-.06.02-.11.03-.17.03-.2.06-.41.08-.64.01-.13.04-.27.05-.42,3.44.91,7,1.61,10.4,1.97,4.71.49,9.1.31,12.42-.83.11-.04.37-.17.51-.58.09-.27.21-.86.35-1.72.47-2.97,1.19-9.33,1.86-16.31.17-1.74.33-3.51.49-5.28.56.24,1.33.55,2.04.84.13.05.26.1.39.15.33.12.64.22.9.3l-.31.73c-.11.26-.19.45-.23.54-.06.13-.06.22-.03.29-.03.02-.05.03-.05.03,0,0,.32.33.65.46l-.24.16.35.15c.54.23,1.67.71,3.25,1.39,6.38,2.72,20.12,8.63,32.48,13.86,1.59.67,3.16,1.34,4.69,1.98l1.65,3.71-1.61,2.03c-.16.2-.18.47-.06.69.12.22.35.36.61.34l3.41-.22-2.7,2.44c-.2.18-.27.47-.17.72.1.25.35.41.62.41l3.85-.09-2.81,2.53c-.21.19-.27.48-.17.74.1.26.36.42.64.41l3.78-.15-2.61,2.25c-.2.18-.28.46-.2.71.08.26.31.44.58.46l4.24.39-2.92,2.48c-.21.18-.29.48-.2.74.09.26.34.44.62.45l3.92.12-2.87,2.26c-.23.18-.32.48-.23.75.09.27.34.46.63.47l3.91.09-2.84,2.37c-.23.19-.31.52-.19.8.12.28.41.45.71.41l1.19-.13c-5.56,12.68-12.08,27.6-16.33,37.32h0ZM264.26,189.32c-3.9.56-8.11,1.16-11.97,1.72-.67.1-1.34.2-1.99.3-1.42.23-2.76.47-4.01.69.77-4.21,1.59-8.71,2.42-13.11.35.2.76.43,1.21.68.41.22.85.45,1.32.69,2.19,1.13,4.97,2.6,7.51,4.32,1.39.94,2.7,1.97,3.83,3.02.49.45.94.91,1.36,1.36.1.11.21.22.31.33h0ZM244.25,203.18c.57.23,1.05.47,1.46.69.51.27.91.53,1.19.79.32.29.48.55.39.82-.1.31-.43.58-.88.85-.73.46-1.77.88-3.03,1.24.12-.58.25-1.2.38-1.86.15-.79.31-1.64.48-2.53h0ZM291.02,222.3l-5.52.31c-.07-1.35-.23-4.48-.42-7.29-.08-1.17-.16-2.28-.24-3.18-.07-.75-.14-1.35-.19-1.72.04.02.08.05.12.07,1.78,1,4.02,1.11,5.92.14,0,.34-.02,1.8.01,3.59.01.81.05,1.69.08,2.57.09,2.29.19,4.55.23,5.51h0ZM316.08,125.09c-.84.78-1.55,1.88-2.02,3.35-.08.17-.54,1.21-1.29,2.92-.05-.04-.11-.07-.17-.08h-.01c-.08-.03-.24-.1-.47-.2-.82-.35-2.52-1.1-4.85-2.12-2.13-.93-4.79-2.08-7.78-3.37-1.82-.78-3.76-1.62-5.77-2.48,1.45-1.57,1.63-3.1,1.19-4.31-.63-1.76-2.61-2.88-4.15-2.62-.75.13-1.66.76-2.24,1.63-.53.8-.79,1.78-.49,2.71.02.08.07.15.13.2l-.35-.15c-10.73-4.59-22.39-9.53-29.25-12.45l-5.4-2.3c.54-1.26,1.75-4.11,2.3-5.42l.02-.05c.93.39,2.87,1.2,5.51,2.29,8.94,3.69,25.88,10.69,38.69,15.88,8.42,3.41,15.06,6.04,16.39,6.56h0ZM312.39,132.23c-1.51,3.44-3.93,8.93-6.74,15.33l-2.94-.07,2.85-2.24c.22-.18.31-.48.23-.75-.09-.27-.34-.46-.63-.47l-4.04-.12,2.8-2.38c.21-.18.29-.46.21-.72-.08-.26-.31-.44-.58-.47l-4.27-.39,2.85-2.47c.21-.18.29-.48.18-.75-.1-.26-.36-.43-.64-.42l-3.86.16,2.76-2.5c.2-.18.27-.47.17-.73-.1-.25-.35-.42-.62-.41l-3.87.1,2.77-2.51c.2-.18.27-.48.16-.73-.11-.25-.36-.41-.63-.39l-3.82.25.95-1.21c.15-.18.18-.43.08-.65l-1.29-2.85c3.24,1.37,6.25,2.63,8.85,3.7,2.71,1.12,4.97,2.03,6.54,2.67,1.08.43,1.83.73,2.2.87.12.05.2.08.24.09.05.02.08.02.1.03h0ZM324.37,132.47c-.25.52-2.28,5.06-5.16,11.67-2.16,4.96-4.8,11.1-7.57,17.55-8.74,20.38-18.73,43.95-18.73,43.95-.01.02-.02.05-.03.08-1.17,4.08-4.89,5.03-7.46,3.6-2.29-1.28-3.56-4.39-1.51-8.74,0,0,0-.01,0-.02,0,0,11.99-27.43,21.09-48.36l.41-.05,1.16,3.5c.09.28.35.46.64.45.72-.03,1.36.13,1.87.44.54.33.93.83,1.05,1.41.27,1.26-.32,2.34-1.19,2.86-.9.54-2.11.5-2.94-.54-.17-.21-.47-.25-.68-.09-.21.16-.25.47-.09.68,1.17,1.57,2.93,1.68,4.28.92,1.28-.72,2.18-2.24,1.84-4.08-.18-.92-.75-1.72-1.59-2.25-.58-.36-1.29-.6-2.08-.65l-1.15-3.6c-.1-.3-.4-.5-.72-.46l-.18.02.16-.37.43-1,.72-.6c.22-.18.3-.48.21-.75-.04-.12-.11-.22-.21-.3,4.68-10.76,8.18-18.87,8.18-18.87,0-.02.02-.04.02-.06,1.17-3.87,4.3-4.8,6.74-3.84,2.47.98,4.19,3.86,2.51,7.51l-.04-.02h0ZM177.93,74.49c.27.27.6.51,1.01.7,1.04.48,1.65,1.14,1.8,1.79.16.7-.31,1.31-1.27,1.53-.6.14-1.16.5-1.6,1,.02-1.52.04-3.23.05-5.02h0ZM177.81,84.36c.21.2.47.38.77.54-.26.06-.52.11-.78.18v-.71h.01ZM226.55,137.08c.21-.43.38-.83.5-1.23.06-.19.09-.38.12-.57.32-2.1-.5-3.59-1.61-4.32-1.01-.66-2.36-.75-3.57-.08.24-1.05.31-1.38.56-2.65.73-.03,1.39.03,1.99.16.34.07.65.16.95.28,2.47.96,3.4,3.62,3.07,6.43-.29,2.5-1.6,5.08-3.78,6.84-.52.42-1.1.79-1.71,1.13-.26.14-.52.28-.79.41-.02-.49-.04-.99-.08-1.48-.17-2.56-.56-5.09-1.33-7.58.14-.05.25-.18.28-.33.12-.33.23-.61.31-.89v-.04c.17-.18.32-.35.47-.5.94-.91,2.07-1.1,2.92-.56.79.5,1.24,1.56,1.11,3.05-.01.16-.03.32-.05.48-.04.37-.08.75-.18,1.16-.08.23.04.48.27.57.23.08.48-.04.57-.27h0ZM156.74,125.25c-.07-.07-.13-.15-.2-.22-1.08-1.13-2.31-1.63-3.36-1.61-1.47.03-2.78,1.07-2.93,3.24-.02.34-.03.7.04,1.09.04.23.11.45.19.69.04.27.28.46.55.42.27-.04.45-.28.42-.55.01-.22.05-.42.06-.63.02-.32.04-.61.07-.89.16-1.29.75-2,1.63-2.03.87-.03,1.85.52,2.77,1.53.1.11.2.22.31.34.11.12.21.23.32.35-.04.52-.07.97-.1,1.33-.2,2.92-.5,6.45-.33,9.96h0c-.44.06-.92,0-1.42-.12-.91-.23-1.88-.81-2.8-1.9-1.21-1.44-2.32-3.74-3-7.26-.63-3.27-.02-5.63,1.45-6.85,1.02-.84,2.42-1.07,4.04-.74.8.16,1.64.44,2.53.87-.1,1.05-.17,2.06-.24,2.98h0ZM248.91,177.91l.19-1.02c.46-2.4.92-4.76,1.36-7.02.3.39.61.77.91,1.15.24.3.49.6.73.89,2.02,2.43,3.92,4.76,5.61,7,1.82,2.41,3.39,4.69,4.74,6.75-.9-.77-1.91-1.49-2.94-2.19-2.6-1.74-5.44-3.24-7.7-4.33-.48-.23-.94-.45-1.37-.63-.58-.25-1.1-.45-1.54-.62h0ZM253.62,101.33c-.31.73-.66,1.55-.98,2.29-.24-.13-.52-.28-.84-.44-.12-.06-.25-.12-.38-.18-.87-.4-1.84-.83-2.4-1.07.07-.8.14-1.59.2-2.38.64.29,1.5.68,2.31,1.02.49.21.96.4,1.35.54.31.11.56.18.72.23h0ZM292.51,122.59c-1.34-.58-2.71-1.16-4.1-1.76.05,0,.11,0,.17-.02.23-.07.36-.32.29-.55-.2-.67.04-1.36.43-1.92.43-.62,1.07-1.09,1.61-1.17,1.12-.16,2.5.71,2.93,1.99.33.98.03,2.18-1.31,3.41,0,0-.01.01-.02.02h0ZM147.11,192.47c-1.28.19-2.46.65-3.49,1.34-1.04.7-1.92,1.64-2.59,2.73-1.27,2.04-1.8,4.62-1.33,7.26.49,2.64,1.91,4.86,3.81,6.33,2.02,1.56,4.58,2.28,7.18,1.79,2.59-.48,4.72-2.07,6.05-4.25,1.25-2.05,1.78-4.62,1.29-7.25-.5-2.62-1.9-4.84-3.82-6.28-2-1.5-4.55-2.16-7.09-1.63v-.05h0ZM147.27,193.39c2.26-.36,4.46.34,6.19,1.72,1.65,1.31,2.88,3.24,3.29,5.55.42,2.3-.04,4.55-1.14,6.33-1.14,1.85-2.95,3.21-5.17,3.61-2.21.4-4.39-.22-6.1-1.55-1.65-1.28-2.87-3.21-3.3-5.5-.43-2.29.02-4.53,1.1-6.33.57-.94,1.31-1.76,2.18-2.41.86-.64,1.85-1.14,2.96-1.38v-.05h0ZM321.18,126.52c-.48-.18-.97-.26-1.45-.23-.51.03-.99.19-1.43.43-.87.47-1.55,1.29-1.84,2.32-.28,1.03-.12,2.08.37,2.95.49.86,1.31,1.54,2.34,1.82,1.03.28,2.07.12,2.93-.37.85-.49,1.52-1.3,1.8-2.33.27-1.02.12-2.07-.39-2.9-.5-.81-1.33-1.42-2.34-1.63v-.04h.01ZM320.93,127.42c.7.24,1.21.77,1.52,1.38.3.59.41,1.28.21,1.96-.19.68-.64,1.21-1.21,1.53-.57.32-1.26.42-1.93.23-.67-.19-1.2-.63-1.52-1.2-.32-.56-.42-1.24-.23-1.91.18-.68.62-1.21,1.17-1.54.29-.17.6-.29.94-.36.34-.07.68-.11,1.04-.05v-.04h.01ZM288.91,200.63c-.48-.18-.97-.26-1.45-.23-.51.03-.99.19-1.43.43-.87.47-1.55,1.29-1.84,2.32-.28,1.03-.12,2.08.37,2.95.49.86,1.31,1.54,2.34,1.82,1.03.28,2.07.12,2.93-.38.85-.49,1.53-1.3,1.8-2.33.27-1.02.12-2.07-.39-2.9-.5-.81-1.33-1.42-2.34-1.63v-.04h.01ZM288.66,201.53c.7.24,1.2.77,1.52,1.38.3.59.41,1.28.21,1.96-.19.68-.64,1.21-1.21,1.53-.57.32-1.25.42-1.93.23-.67-.19-1.2-.63-1.52-1.2-.32-.56-.42-1.24-.23-1.91.18-.67.61-1.21,1.17-1.54.29-.17.6-.29.94-.36.34-.06.68-.11,1.04-.04v-.04h.01ZM220.25,125.29c.48.15.96.29,1.44.42v.03c-.16.48-.24.9-.31,1.27-.47,2.26-.48,2.35-.75,3.89-.05-1.15-.14-2.44-.2-3.57-.02-.36-.03-.71-.06-1.02-.02-.25-.05-.47-.08-.68-.02-.12-.03-.23-.04-.34h0ZM206.51,163.93c-1.03.73-2.23,1.38-3.54,1.96-.56.25-1.14.48-1.74.7-4.26,1.57-9.48,2.28-14.45,1.55-4.8-.7-9.34-2.75-12.54-6.6-.77-.92-1.46-1.95-2.08-3.08-.11-.21-.23-.42-.34-.63,3.43,1.39,6.99,2.24,10.51,2.69,2.9.37,5.76.47,8.52.34,1.95-.09,3.85-.29,5.65-.58,1.63-.26,3.19-.57,4.64-.95,1.42-.38,2.74-.81,3.94-1.27-.05.66-.04,1.33.06,2.03.15,1.1.5,2.28,1.21,3.53.06.1.12.2.18.3h0ZM195.23,152.36c-.75.38-1.5.69-2.24.98-.33.13-.65.26-.97.38-2.71,1-5.41,1.44-7.91,1.36-2.92-.09-5.54-.89-7.57-2.17-.58-.37-1.12-.78-1.61-1.21-.34-.3-.68-.6-.97-.93-.16-.22-.47-.27-.68-.11-.22.16-.26.46-.11.68.26.43.55.84.9,1.23.49.55,1.09,1.03,1.73,1.47,2.18,1.46,5.07,2.3,8.26,2.38,2.66.07,5.55-.39,8.39-1.55.34-.14.67-.29,1-.45.75-.37,1.48-.81,2.21-1.29.21-.12.28-.39.16-.6-.12-.21-.39-.28-.6-.16h0ZM180.16,130.9c-.47-.47-.93-.91-1.4-1.31-.21-.18-.43-.35-.65-.51-1.91-1.39-3.85-2.29-5.87-2.75-2.03-.45-4.18-.47-6.51.12-.52.13-1.05.29-1.59.5-.34.14-.66.3-1,.48-.25.09-.38.38-.29.63.09.25.37.38.63.29.35-.09.69-.15,1.03-.23.52-.12,1.03-.25,1.52-.36,2.14-.46,4.07-.52,5.92-.12,1.87.4,3.64,1.25,5.45,2.45.22.14.43.29.65.44.5.33,1.02.66,1.54,1.04.19.16.46.14.62-.05.16-.19.14-.47-.05-.62h0Z" style="fill: #000; fill-rule: evenodd; stroke-width: 0px;"/>
      <path d="M58.98,230.09c4.03-3.7,11.77-10.96,17.82-16.55-24.95.8-44.45,7.72-44.45,16.13,0,8.95,22.08,16.21,49.31,16.21,1.85,0,3.68-.03,5.47-.1-6.3,6.54-1.64,7.09,5.12,7.56l87.36,6.01c9.06.62,8.34,0,17.43-6.9l11.42-8.68c2.43.2,4.99.31,7.63.31,16.17,0,29.27-4.03,29.27-9.01,0-.44-.1-.87-.3-1.3-5,4.11-17.34,4.75-23.15,1.34-1.72-1.01-2.9-2.38-3.27-4.09-.08-.37-.28-1.3-.54-2.58-.73.91-1.55,1.7-2.37,2.52-1.84,1.84-3.73,3.63-5.65,5.39-.57.53-1.14,1.06-1.73,1.56-.21.18-.43.33-.65.49-.02.02-.1.34-.49.33v.05s-8.2-.29-19.9-.75c-5.94-.24-12.77-.53-19.89-.83-5.89-.25-11.97-.5-17.9-.76-21.95-.94-41.77-1.83-41.77-1.83-.32-.01-.58-.24-.64-.56l-3.01-16.05c-.43.47-1.14,1.26-2.04,2.24l-14.25,15.38c-.95.98-2.9,2.05-5.02,1.8-3.07-.35-9.5-1.01-14.82-1.62-2.53-.29-4.81-.57-6.36-.8-2.05-.31-2.97-1.22-3.3-2.12-.39-1.06.04-2.2.69-2.81h0Z" style="fill: #000; fill-rule: evenodd; stroke-width: 0px;"/>
      <path d="M247.96,213.53l-.63,13.85,4.32-.86,13.88,3.92c.76-.71,1.59-1.4,2.49-2.07,2.29-1.72,4.76-3.14,7.43-4.34l-4.25-1.42c-5.56-2.01-13.75-5.13-18.83-7.16l-4.41-1.9h0Z" style="fill: #000; fill-rule: evenodd; stroke-width: 0px;"/>
      <path d="M332.98,219.13c-6.54,1.27-14.83,3.06-20.85,4.39-2.04.45-3.83.83-5.19,1.15l-1.4.31c3.28,1.71,6,3.75,8.14,5.87l27.14-9.73-7.65-2.02c-.06.01-.12.03-.19.04h0Z" style="fill: #000; fill-rule: evenodd; stroke-width: 0px;"/>
      <path d="M318.45,238.12c.27,2.12-1.17,3.94-3.95,5.33-10.37,5.19-39.3,4.83-49.78-.15-1.2-.57-2.16-1.21-2.85-1.91-1.65,1.17-2.57,2.46-2.57,3.81,0,5.6,15.73,10.13,35.13,10.13s35.13-4.54,35.13-10.13c0-2.92-4.3-5.56-11.17-7.41.03.12.05.23.06.32h0Z" style="fill: #000; fill-rule: evenodd; stroke-width: 0px;"/>
      <path d="M278.88,188.64c-1.53.22-15.38,2.19-26.42,3.64l-6.34.7-.33,1.84,2.51.8c1.14.38,2.32.81,3.54,1.25,7.83,2.83,17.18,6.24,23.53,8.54,1.08.39,2.06.75,2.94,1.08,2,.76,3.43,1.33,4.04,1.58-1.07-1.93-1.24-4.67.36-8.05l4.12-9.44c-.09-.02-1.13-.22-2.44-.53-2.1-.5-4.87-1.23-5.51-1.41h0Z" style="fill: #b2b2b2; fill-rule: evenodd; stroke-width: 0px;"/>
      <path d="M299.6,193.41c-3.08,7.22-5.23,12.24-5.43,12.72l-.07.22c.05-.03.11-.05.18-.06,0,0,1.77-.34,4.03-.73,1.79-.3,3.9-.63,5.66-.9,2.02-.31,3.6-.53,3.77-.55l13.23-2.58c-2.22-.75-5.7-2-10.01-3.51-1.38-.49-2.86-.99-4.4-1.54-1.99-.71-4.08-1.48-6.27-2.24-.44-.15-.36-.7-.04-.83l-.65.02h0Z" style="fill: #b2b2b2; fill-rule: evenodd; stroke-width: 0px;"/>
      <path d="M300.58,213.45l-5.64,1.18-2.94.62h-.02s.17,3.12.17,3.12l7.7-1.67c9.56-1.93,24.64-4.84,30.91-6.04l-.17-.05c-1.67-.49-3.93-1.23-6.58-2.1-.24.12-.51.21-.8.27-5.73,1.11-15.5,3.14-22.62,4.66h0Z" style="fill: #000; fill-rule: evenodd; stroke-width: 0px;"/>
      <path d="M283.72,215.2l-5.8-1.91c-4.12-1.45-9.09-3.27-13.94-5.04-5.17-1.89-10.22-3.73-13.91-5.13l-5.4-2.16-.22,1.19c1.53.46,4.18,1.43,4.18,3.2.67.21,1.35.42,2.03.65,1.67.57,3.38,1.2,5.09,1.83,8.62,3.15,17.58,6.46,23.23,8.53l4.88,1.88-.15-3.05h0Z" style="fill: #000; fill-rule: evenodd; stroke-width: 0px;"/>
      <path d="M141.03,196.54c1.37-2.21,3.48-3.68,6.08-4.07v.05c2.55-.53,5.09.12,7.1,1.63,1.91,1.44,3.32,3.65,3.82,6.28.49,2.63-.04,5.2-1.29,7.25-1.32,2.17-3.45,3.76-6.05,4.25-5.22.97-10.03-2.88-10.99-8.12-.47-2.64.06-5.22,1.33-7.26h0ZM206.71,237.78c-.43-3.19-2.59-19.15-4.46-33.18l-2.97-22.55c-.26-4.06-1.33-5.7-5.58-5.74h-.02s-93.18-4.11-93.18-4.11c-1.21-.06-2.08,0-2.69.52-.59.5-.64,1.28-.41,2.45l10.92,58.1c3.32.14,21.41.92,41.23,1.81,5.93.27,12.01.54,17.9.81,7.12.33,13.96.63,19.89.92,9.94.48,17.35.86,19.35.97h0Z" style="fill: #b2b2b2; fill-rule: evenodd; stroke-width: 0px;"/>
      <path d="M220.25,125.29l.18,2.05c.06,1.13.15,2.42.2,3.57.09-.48.76-4.28,1.07-5.19-.48-.14-.97-.28-1.44-.42h0Z" style="fill: #fff; fill-rule: evenodd; stroke-width: 0px;"/>
      <path d="M156.95,120.87c.03-2.97.76-5.57,1-8.47.5-6.08.62-11.61,4.19-16.94,2.68-4,6.33-6.83,10.53-8.67l-.23-11.33c-.1-6.62-.15-14.11-.16-16.32-4.44,0-30.99.05-50.75.04-6.85,0-14.8-.03-20.89-.17.96,2.03,1.29,4.12,1.32,5.88.1,6.31-3.46,11.12-9.56,13.4.33,2,1.38,3.33,2.63,4.19,1.64,1.12,3.61,1.47,4.79,1.49-.38-3.18.63-7.86,2.06-10.67,1.77-3.46,4.86-6.97,10.08-9.2,3.46-1.48,7.86-2.41,13.44-2.38,7.37.04,13.25,1.92,17.54,4.96,5.45,3.86,8.36,9.6,8.54,15.9.16,5.84-2.04,12.2-8.23,16.32-4.95,3.3-11.24,4.41-17.76,4.36-.63.63-2.5,2.44-4.64,4.64-.8.82-1.65,1.7-2.48,2.59,4.02,2,6.86,4.58,8.81,7.23,3.06,4.15,3.99,8.51,3.98,11.28-.02,5.07-1.95,10.28-6.28,14.55-3.11,3.08-7.47,5.67-13.24,7.38l7.65,17.8c.3.69-.58,1.3-1.12.78,0,0-17.98-17.06-17.98-17.06-4.45.38-8.56.05-12.24-.85l.25,3.51c.05.97.07,2.11.11,3.33.14,5.47.27,12.66.31,14.87,1.99,0,5.36,0,7.37.17.12-.75.46-1.33.95-1.75.77-.66,2.01-.96,3.63-.84l24.64,1.1c.61-.52,1.23-1.03,1.87-1.51,3.68-2.81,8.34-5.5,12.29-8.01,4.16-2.64,8.26-5.29,12.48-7.75,3.13-1.81,5.13-2.87,8.45-4.34-2.75-2.96-3.76-7.07-4.06-11.1-1.89.47-3.82-.38-5.33-2.12-1.35-1.55-2.55-4.06-3.27-7.9-.73-3.9.19-6.68,1.96-8.1,2.18-1.75,5.02-1.29,7.47.12v-.03c-.08-.1-.13-.22-.13-.36h0Z" style="fill: #b2b2b2; fill-rule: evenodd; stroke-width: 0px;"/>
      <path d="M119.04,102.83c-4.63-.92-8.26-2.51-11.06-4.44-3.8-2.62-6.41-6.06-7.46-10.22-4.91-.2-9.74-1.73-12.15-5.73,0,.68,0,1.42.01,2.22,0,4.23-.04,9.88-.07,14.58,0,1.14,0,2.22-.02,3.21l-.19,5.1c3.55-.86,7.57-1.29,12.03-1.19,4.81.11,9.49.74,13.77,2.13l5.14-5.67h0Z" style="fill: #b2b2b2; fill-rule: evenodd; stroke-width: 0px;"/>
      <polygon points="113.61 90.34 113.61 76.81 111.69 76.81 111.69 90.34 113.61 90.34 113.61 90.34" style="fill: #b2b2b2; fill-rule: evenodd; stroke-width: 0px;"/>
      <polygon points="121.3 85.92 121.3 90.34 123.22 90.34 123.22 85.92 121.3 85.92 121.3 85.92" style="fill: #fff; fill-rule: evenodd; stroke-width: 0px;"/>
      <polygon points="130.9 85.72 130.9 90.34 132.82 90.34 132.82 85.72 130.9 85.72 130.9 85.72" style="fill: #fff; fill-rule: evenodd; stroke-width: 0px;"/>
      <polygon points="140.31 79.72 140.31 90.34 142.23 90.34 142.23 79.72 140.31 79.72 140.31 79.72" style="fill: #b2b2b2; fill-rule: evenodd; stroke-width: 0px;"/>
      <polygon points="126.2 83.02 126.2 90.34 128.12 90.34 128.12 83.02 126.2 83.02 126.2 83.02" style="fill: #b2b2b2; fill-rule: evenodd; stroke-width: 0px;"/>
      <path d="M135.71,87.42v2.92h1.92v-2.92h-1.92ZM85.56,67.77l1.43,5.18c3.82-1.29,6.09-5.29,5.14-9.27l-5.15,1.53c.12,1.09-.47,2.1-1.42,2.56h0ZM89.07,122.1c-1.93,2.64-2.71,6-2.05,9.31.45.07.92.12,1.41.16,0-.09,0-.18.03-.28.16-.96.84-1.24,1.63-1.51.45-.16.73-.23.69-.76-.08-1.05-.36-.88-.73-1.83-.45-1.15,1.32-2.2.78-3.16-.5-.88-.77-1.58-1.76-1.92h0ZM94.53,117.97c1.58.28,3.88.02,5.43-.65-1.86-.21-3.72.02-5.43.65h0ZM98.93,132.26c-.82.23-.93,2.66.37,2.96.77.18,1.12.65,1.25,1.25.21.95-.34,2.74-.22,2.98.13.14.27.22.41.24.25.04.5-.1.76-.31,1.22-.98,2.25-3.36,2.89-3.75.94-.56.79-2.94,1.6-4.04.1-.14.24-.17.47-.21.94-.15,2.58-.21,3.73.12.17-.83.26-1.64.25-2.52-.53.24-1.05.43-1.55.57-.56.15-.79-.7-.23-.85.55-.15,1.14-.38,1.73-.66-.03-.41-.09-.8-.16-1.2-.63.32-1.31.62-2.04.88-.55.19-.84-.64-.29-.83.76-.27,1.48-.59,2.13-.93-.65-2.41-2.06-4.52-3.95-6.07-.55.62-1.22,1.08-1.91,1.45l-1.71.82c-.35.72-.64,1.97-1.16,2.92-1.33,2.46-3.25,1.1-3.2,2.78.05,1.79,1.33,1.45,1.36.19.02-.64.66-.7,1.16-.75.5-.05.29-.15.57-.17.09,0,.24,0,.38.15.23.24.61,1.36,1.12,1.99l.7-.27c-.72-.37-1.24-1.69-1.24-2.43,0-.71.45-1.16,1.14-1.03.53.09,1.61-.46,2.08.58.49,1.07.77,2.27.65,3.19-.12.95-.62,1.64-1.6,1.8l-5.49,1.15h0ZM91.46,134.66c-.29-.71-2.12-1.14-2.79-2.2-.49-.03-.97-.07-1.43-.14.13.46.29.91.47,1.35.4.03.8.03,1.19.02.58-.02.62.86.04.88-.27.01-.54.01-.81,0,.7,1.33,1.65,2.51,2.79,3.49-.09-.61.08-1.18.73-1.6.53-.34.05-1.21-.19-1.8h0ZM118.41,90.34v-6.93h-1.92v6.93h1.92Z" style="fill: #3c5daa; fill-rule: evenodd; stroke-width: 0px;"/>
      <path d="M87.26,62.92l5.81-1.99c-1.14-2.82-3.81-4.72-6.85-4.89v6.14c.42.1.8.38,1.04.74h0Z" style="fill: #b2b2b2; fill-rule: evenodd; stroke-width: 0px;"/>
      <path d="M86.16,73.18l-1.45-5.18h-.4s-.28,1.11-.28,1.11c-.33,1.37-.62,2.75-.97,4.12,1.02.19,2.08.17,3.1-.05h0Z" style="fill: #000; fill-rule: evenodd; stroke-width: 0px;"/>
      <path d="M82.21,73.02l1.25-5.23c-.86-.39-1.45-1.24-1.49-2.21l-5.32-.76c-.32,3.75,2.05,7.14,5.56,8.21h0Z" style="fill: #b2b2b2; fill-rule: evenodd; stroke-width: 0px;"/>
      <path d="M76.77,63.94l5.32.76c.29-.87,1.04-1.53,1.95-1.69v-5.37c-3.6.2-6.58,2.82-7.27,6.31h0Z" style="fill: #fff; fill-rule: evenodd; stroke-width: 0px;"/>
      <path d="M308.35,156.95c.95.26,1.51,1.25,1.24,2.19-.26.95-1.25,1.51-2.19,1.24-.95-.26-1.51-1.25-1.24-2.19.26-.95,1.25-1.51,2.19-1.24h0Z" style="fill: #b2b2b2; fill-rule: evenodd; stroke-width: 0px;"/>
      <path d="M291.78,118.07c.95.26,1.51,1.25,1.24,2.19-.26.95-1.25,1.51-2.19,1.24-.95-.26-1.51-1.25-1.24-2.19.26-.95,1.25-1.51,2.19-1.24h0Z" style="fill: #b2b2b2; fill-rule: evenodd; stroke-width: 0px;"/>
    </g>
  </g>
</svg>